<svg xmlns="http://www.w3.org/2000/svg" enable-background="new 0 0 154.2 144.5" version="1.1" viewBox="0 0 154.2 144.5" x="0px" xml:space="preserve" y="0px" style="fill: rgb(0, 0, 0);" role="img" aria-label="行星宇宙">
<g>
	<g id="__id6_sauwcjyeft">
		<g id="__id7_sauwcjyeft" style="fill: rgb(0, 0, 0);">
			<path d="m54.7 85.4v0 0.5-0.5z" style="fill: inherit;"></path>
			<path d="m65.2 13.2z" style="fill: inherit;"></path>
			<path d="m65 12.9c0.1-0.1 0.2-0.3 0.2-0.6-0.1 0.3-0.1 0.5-0.2 0.6z" style="fill: inherit;"></path>
			<path d="m57.1 29.8c0 0.1-0.1 0.2-0.1 0.4 0.1-0.1 0.1-0.3 0.1-0.4z" style="fill: inherit;"></path>
			<path d="m78.5 0.8h0.1-0.1z" style="fill: inherit;"></path>
			<path d="m81.5 0.9h0.2-0.2z" style="fill: inherit;"></path>
			<path d="m65 12.9c-0.2 0.3-0.5 0.5-0.6 0.9-0.2 0.2-0.1-0.4-0.3 0.1-0.1 0.5 0.5 0 1-0.7 0 0-0.1-0.1-0.1-0.3z" style="fill: inherit;"></path>
			<path d="m105.7 125.1c0 0.1 0 0.1-0.1 0.2 0.1 0 0.1-0.1 0.1-0.2z" style="fill: inherit;"></path>
			<path d="m74.9 131.2c0.2 0.1 0.3 0.2 0.4 0.2-0.1-0.1-0.2-0.2-0.4-0.2z" style="fill: inherit;"></path>
			<path d="m94.1 136.5c0.1 0 0.1 0 0 0z" style="fill: inherit;"></path>
			<path d="m82.1 1.4c-0.7-0.1 0 0.3 0 0.6 0.2 0 0-0.4 0-0.6z" style="fill: inherit;"></path>
			<path d="m65.7 12.3c0-0.1-0.1-0.1 0-0.4-0.2 0.1-0.2 0.4-0.3 0.7l0.3-0.3z" style="fill: inherit;"></path>
			<path d="m60.1 21.6c-0.3 0.6-0.2 0.7 0.1 0.3 0-0.1 0-0.3-0.1-0.3z" style="fill: inherit;"></path>
			<path d="m59.9 23.1s-0.1 0 0 0c-0.1 0 0 0 0 0z" style="fill: inherit;"></path>
			<path d="m60.3 22.4c-0.1-0.2-0.3 0.4-0.4 0.7 0.1-0.2 0.3-0.4 0.4-0.7z" style="fill: inherit;"></path>
			<path d="m55.5 34.2c0.2-0.2 0.3-0.8 0.4-1.1-0.2-0.2-0.2 0.9-0.4 1.1z" style="fill: inherit;"></path>
			<path d="m54.4 38.8c0-0.2 0-0.3 0.1-0.4l-0.2 0.1c-0.1 0.2 0 0.6 0.1 0.3z" style="fill: inherit;"></path>
			<polygon points="70.7 131.2 71.2 131.6 70.8 131.2" style="fill: inherit;"></polygon>
			<path d="m107.1 122.4c0.3-0.7 0.1 0.1 0.4-0.4-0.1 0.1-0.2-0.2-0.4 0.4z" style="fill: inherit;"></path>
			<polygon points="112.1 100.1 112.1 99.9 111.8 100" style="fill: inherit;"></polygon>
			<path d="m75.5 55.7c0.3-0.1 0.4-0.2 0.4-0.4-1 0.5 0.3-0.1-0.4 0.4z" style="fill: inherit;"></path>
			<path d="m90.6 68.4c0-0.1 0.1-0.2 0.1-0.4-0.1 0.2-0.1 0.3-0.1 0.4z" style="fill: inherit;"></path>
			<path d="m75.8 73v0c-0.1-0.1-0.1 0 0 0z" style="fill: inherit;"></path>
			<path d="m75.5 73.1c0.3 0.2 0.5 0.5 0.9 0.5 0.2 0.2-0.4 0.1 0.1 0.3 0.5 0-0.1-0.5-0.7-0.9 0 0.1-0.1 0.1-0.3 0.1z" style="fill: inherit;"></path>
			<path d="m91.5 61.4c0.2 0.3 0.2-0.3 0.2-0.7 0 0.9-0.4 0.1-0.6-0.4-0.2-0.8-0.3-1.5-0.1-1.5l0.6 0.7c-0.4-0.5 0-0.3-0.3-0.9-0.2-0.1-0.7-0.4-0.9-0.5-0.3-0.5-0.3-0.9-0.5-1l0.6 0.6c-0.6-0.9 0.3-0.5-0.5-1.4l-0.4-0.1c-0.1-0.2-0.1-0.4 0.1-0.2-0.2 0-0.6-0.6-0.9-0.7l0.1-0.2c-0.4-0.3-1-0.4-1.2-1 0.1 0.6 0.4 0.4 0.8 1.1 0.1 0.5-0.7-0.4-0.9-0.5 0.3-0.3-0.8-0.8-1.3-1.1-0.2-0.3-0.3-0.5-0.5-0.7l-0.4 0.1c0.1-0.5-1-0.5-1.4-1 0.4 0 0.4-0.2 0.1-0.5 0.3 0.6-1.1 0-1.1 0.3-1-0.6 0.4-0.3 0.3-0.7-0.6 0-1.1-0.7-1.7-0.5 0.8 0.4-0.2 0.2-0.4 0.3-1-0.3 0.2-0.1-0.5-0.4-0.5-0.1-1.1 0.1-0.4 0.4-0.6-0.2-1.3 0.1-2-0.2-0.3-0.3 1.3 0 0.9-0.2-0.8-0.1-1 0.1-1.1 0.2-0.2 0.2-0.3 0.3-1 0.4 0.6 0.1 0.1 0.5-0.5 0.8-1.3 0.2 0.5-0.3 0-0.5-0.2 0-0.4 0.1-0.5 0.2-0.4-0.1-0.1-0.4 0.3-0.6 0.4-0.3 0.9-0.4 0.4-0.6l-0.6 0.3c0.1-0.1 0.3-0.4 0-0.5-0.1 0.3-1.5 0.5-1.6 0.7 0 0.3 0.5-0.3 0.5-0.1-0.7 0.3-0.8 0.8-1.8 1.3 0.4-0.5-0.4-0.1-0.3-0.4-0.5 0.2 0 0.3-0.7 0.7v-0.2c-0.6 0.5-1.2 1.1-1.6 1.9-0.4 0.7-0.7 1.6-0.8 2.4-0.3 1.6 0 3 0.4 4.1-0.2 0.4-0.2 1.2-0.1 2.6 0-0.5 0.1-0.2 0.3 0v0.3 0.3 0.3 0.2 0.4l-0.1-0.1c0 0.8 0.1 0.3 0.2 0.3 0 0.1 0.1 0.2 0.1 0.2 0 0.6-0.4 0.3-0.4 1 0.1 0.3 0.2 0.6 0.3 1s0.3 0.7 0.5 1.1c0.4 0.7 0.9 1.4 1.2 2 0.8 0.8 1.8 1.4 2.7 1.7 0.8 0.4-0.2 0.3 0.7 0.6-0.2 0.1-0.1 0.3-0.1 0.4 0.2-0.1 1.7 0.7 1.1 0.1 1.2 0.5 2.8 0.8 4.3 0.7-0.5 0-0.6 0.3-0.2 0.4 0.7-0.3 1.8-0.5 3-0.8-0.1-0.2-0.5-0.1-0.4-0.4 0.2-0.1 0.4-0.3 0.7-0.4 0.2 0.2 0.4 0.6 1.4 0.1-0.1 0.6-1.8 0.7-1.2 0.9-0.2 0.3-0.8 0.5-1.4 0.7-0.6 0.1-1.3 0.2-1.5 0.1-1 0.4 0.8 0 0.7 0.3 0.9-0.2 1.4-0.4 2.7-1-0.1-0.2-0.5 0 0.1-0.4 1-0.8 1.5-0.5 1.8-0.7-0.1 0.1-0.3 0.3-0.5 0.4 0.4-0.2 0.6-0.4 0.9-0.6 0.2-0.2 0.4-0.5 0.8-0.7 0.3 0.1 0 0.3-0.4 0.6-0.3 0.3-0.8 0.5-0.9 0.8l0.8-0.1c0.6-0.4 0.6-0.6 0.6-0.7s0.1-0.2 0.6-0.7v0.2c0.2-0.3 0.4-0.5 0.6-0.8-0.1-0.1-0.4-0.1-1 0.4 0-0.7 0.5-0.5 1.1-1.6 0-0.5-0.3 0.4-0.5 0.3-0.1 0-0.1-0.2 0.1-0.4 0.1-0.2 0.3-0.5 0.4-0.8 0.5-0.8 0.5-0.3 0.8-0.6 0 0.2-0.4 0.9-0.5 0.7-0.4 1.2 0.7-0.2 0.4 0.6 0.4-0.5 0.4-0.7 0.4-0.9 0-0.1 0-0.3 0.1-0.5-0.2 0.3-0.2-0.2-0.4-0.1 0-1.7 0.9-0.7 1.2-2.3-0.2 0.1-0.3-0.4-0.4-0.9-0.1-0.4-0.2-0.7-0.5-0.3 0-0.4-0.1-0.8 0-1.1 0.3 0.4 0.3-0.6 0.5 0.1v-0.5l0.3 0.9c0.1-0.3 0.2-0.7 0.3-1.1s0.1-0.8 0.2-0.9c0-0.7 0 0.5-0.2-0.5zm-18.6-3.1c0 0.1-0.1 0.2-0.1 0.2 0-0.2 0-0.4 0.1-0.6-0.1 0.2-0.3 0.5 0 0.4zm3 2.5c0-0.1 0.1-0.1 0.1-0.1 0.1 0.4 0.2 0.7 0.4 1.1-0.3 0.1-0.7 0.2-0.9 0.5 0-0.5 0.1-1 0.4-1.5zm1.2 7.7c-0.1-0.1-0.2-0.1-0.3-0.2h0.1c0 0.1 0.1 0.2 0.2 0.2zm-1.9-2.4c0.1 0.1 0.2 0.1 0.2 0.2l-0.2-0.2zm1.3-1.4c0-0.1 0-0.2-0.1-0.3v-0.1c-0.1 0-0.2 0-0.3-0.1s-0.2-0.2-0.2-0.3v-0.2c0.1-0.2 0.3-0.5 0.7-0.6v1.1c0 0.7 0.3 1.5 0.7 2.1-0.5-0.4-0.9-0.8-1.2-1.3 0.2-0.1 0.4-0.2 0.4-0.3zm0-0.4zm2.2-3.1v0c0-0.1 0.1-0.1 0.1-0.1 0.2 0 0.3 0.1 0.3 0.2 0.1 0.2 0.2 0.6 0.2 0.8-0.2-0.2-0.4-0.5-0.6-0.7v-0.2zm2.2 0.9c0 0.2 0.1 0.2 0.1 0.4v0.2c-0.1-0.2-0.2-0.3-0.3-0.4 0.1-0.1 0.1-0.2 0.2-0.2zm-1.7-2.9c0.2 0 0 0.2 0 0.2h-0.2s0-0.1 0.1-0.1v0.1c0-0.1 0-0.1 0.1-0.2zm-0.2 5.6c0.1 0.2 0 0.1-0.1 0.2 0.1 0.1 0.3 0.2 0.4 0.3v0.1 0.1c-0.1 0-0.2-0.1-0.2-0.1-0.1 0-0.1 0-0.2-0.1l-0.1-0.1c-0.1-0.2-0.2-0.4-0.3-0.7 0.2 0.1 0.4 0.2 0.5 0.3zm1.5 1.7c0.2-0.3 0.2-0.4 0.4-0.4 0.1 0 0.2 0 0.2-0.2v-0.1h0.4c0.4 0.1 0.2 0.2-0.1 0.3s-0.6 0-0.4 0.2c0-0.2 0.2-0.1 0.5-0.2 0.4 0 0.9-0.3 1.2-0.9-0.1 0.4-0.2 0.9-0.4 1.3s-0.4 0.9-0.6 1.3c-0.3 0.5-0.2 0.3-0.2 0.4h-0.2c-0.3 0-0.7-0.1-1-0.2-0.6-0.2-1.2-0.4-1.8-0.7 0.9 0 1.8-0.2 2-0.8zm4.7-4.4c-0.1 0-0.1 0-0.2 0.1-0.1-0.2-0.2-0.5-0.3-0.6 0.1 0 0.1-0.1 0.2 0.2 0-0.3-0.1-0.4-0.1-0.5 0 0 0.1 0 0.1 0.1 0.5 0.8 0.4 0.7 0.3 0.7zm-0.4-0.8c-0.2-0.3-0.4 0.1-0.5-0.9l0.3 0.2c-0.2-0.3-0.3-0.5-0.4-0.8 0.1 0.1 0.1 0.1 0.2-0.1 0.2 0.1 0.3 0.4 0.3 0.7s0 0.6 0.1 0.9zm-12.3-2.3v-0.1 0.1zm4.1 12c0.3-0.3 0.3 0.2 0.8 0.1 0 0.1 0.5 0.4-0.1 0.3l0.6 0.3c-0.4 0-0.8-0.2-1.2-0.3-0.1-0.1-0.1-0.2-0.1-0.4zm10.9-7.9v0 0zm-10.4-7.1c0.1-0.1 0.1-0.2 0.1-0.1 0 0 0 0.1-0.1 0.1zm-3.4 3.8zm14.8 6.7c0.1 0.4-0.4 1.5 0 1.1-0.2 0.5-0.4 0.1-0.5 0.7v-0.6c-1.4 2.4-3.3 3.9-6 4.5-0.2 0-0.5-0.1-0.8-0.1h-1c-0.7 0-1.5-0.1-2.2-0.4 0.7 0.2 1.5 0.3 2.3 0.2 1.2-0.1 2.3-0.6 3.3-1.1 0.4-0.3 0.2-0.3 0.4-0.4 1.4-0.4 2.4-1.9 3.3-3.1-0.3 0.2-0.4-0.4 0-1.1 0.1-0.9 0.5-0.1 0.9-0.9 0-0.4 0.1-1.2 0.2-1.5-0.1-0.3-0.1-0.6-0.1-0.9v-1 0.1c-0.1-0.5 0-1.1-0.2-1.6-0.3-0.2-0.7-1.4-1-1.5 0-0.1 0.1 0 0-0.1l-0.1 0.1c-0.1-0.3-0.3-0.6-0.5-0.9 0.2 0.1 0.3 0.1 0.5 0.3-0.5-1-0.4-0.2-0.8-0.5-0.6-0.4-0.4-0.6-0.6-0.9 0.3 0.1 0.3 0.4 0.5 0.5 0.4 0.2-0.3-0.4-0.2-0.5-0.1-0.1-0.4 0-0.7-0.4-0.3-0.3-1.3-0.9-1.1-1-0.4-0.1-0.8-0.3-1.1-0.4 0.3 0.2 0.9 0.6 0.9 0.8-0.3-0.2-0.9-0.4-1-0.5l0.3 0.1c-0.3-0.1-1.2-0.5-0.8-0.1l-0.6-0.5c-0.3 0.1-1-0.1-1.6-0.1 0-0.2 0.5-0.5-0.6-0.6-0.3 0.1-0.7 0.2-1 0.3-0.5 0.1-0.7 0.1-0.6-0.1-0.9 0.1-1.3 0.5-1.6 0.8s-0.5 0.6-1.1 0.9c0.3-0.6-0.1-0.3-0.7 0 0 0 0 0.1-0.1 0.3-0.1-0.1-0.4 0-0.5-0.1-0.2 0.5 0.3 0.2 0.5 0.1 0.2 0 0.1-0.4 0.6-0.5 0.2 0.1-0.4 0.4-0.5 0.7-0.6 0.1-1.2 0.8-1.8 1.6 0.2-0.6 0.4-1.2 0.7-1.7-0.1 0.3-0.5 0.7-0.7 0.6v-0.2c0.4-1.4 1.3-2.4 2.4-3.2l0.3 0.1c1.2-0.7 2.7-0.8 4.1-0.5s2.8 0.9 4.2 1.6c0.6 0.6 1.6 1.5 2.1 2.1 0.9 0.6 1.1 1 1.8 1.4 0.3 0.3 0.2 0.7 0.2 0.8 0.6 1.2 0.5 2.5 1 3.5l-0.2 0.1c0.4 1 0.5 2.6-0.2 3.7z" style="fill: inherit;"></path>
			<path d="m75.5 73.1c-0.1-0.1-0.3-0.1-0.5-0.1 0.3 0.1 0.4 0.1 0.5 0.1z" style="fill: inherit;"></path>
			<path d="m74.9 72.5c-0.1 0-0.1 0.1-0.4 0 0.1 0.2 0.4 0.2 0.6 0.3 0-0.1-0.1-0.3-0.2-0.3z" style="fill: inherit;"></path>
			<path d="m77.9 74.1c0.7 0.2 1.8 0.2 1.9 0-0.6 0-1.3 0.1-1.9 0z" style="fill: inherit;"></path>
			<path d="m84.8 74c-0.1 0.1-0.3 0.2-0.2 0.3 0.6-0.3 0.7-0.4 0.2-0.3z" style="fill: inherit;"></path>
			<path d="m85.8 73.3c-0.2 0-0.4 0.1-0.7 0.2-0.1 0.3 0.4-0.1 0.7-0.2z" style="fill: inherit;"></path>
			<path d="m85.8 73.3h0.1-0.1z" style="fill: inherit;"></path>
			<path d="m91.9 64.2c-0.2 0.2-0.1 0.8-0.2 1.1 0.2 0.2 0.1-0.8 0.2-1.1z" style="fill: inherit;"></path>
			<path d="m91.2 59.8c0.1 0.2 0.1 0.2 0.1 0.4l0.1-0.2c0-0.3-0.2-0.6-0.2-0.2z" style="fill: inherit;"></path>
			<path d="m3 32.2c0.9 1.4-0.3-0.4 0.7 0.7-0.3-0.5-0.5-0.6-0.7-0.7z" style="fill: inherit;"></path>
			<path d="m141.7 93.9l-0.1-0.1c0.1 0 0.1 0.1 0.1 0.1z" style="fill: inherit;"></path>
			<path d="m146.1 117.3c0-0.2 0.1-0.3 0.1-0.4 0 0.1-0.1 0.2-0.1 0.4z" style="fill: inherit;"></path>
			<path d="m130.9 78l0.1 0.1s0-0.1-0.1-0.1z" style="fill: inherit;"></path>
			<path d="m88.5 112.1h-0.1c0.2 0.1 0.4 0.1 0.7 0.2l-0.6-0.2z" style="fill: inherit;"></path>
			<path d="m4.9 35.5l0.2 0.2c-0.1 0-0.1-0.1-0.2-0.2z" style="fill: inherit;"></path>
			<path d="m7.7 38.2c0.1 0 0.1 0.1 0.2 0.1-0.1 0-0.2-0.1-0.2-0.1z" style="fill: inherit;"></path>
			<path d="m35.1 74.1c-0.1-0.2-0.3-0.3-0.4-0.4l0.4 0.4z" style="fill: inherit;"></path>
			<path d="m20.9 56.8v0 0z" style="fill: inherit;"></path>
			<path d="m20.6 56.8c0.2 0.3 0.3 0.8 0.8 1.1 0.1 0.3-0.4-0.1 0 0.4 0.5 0.3 0.2-0.5-0.4-1.3v-0.1c-0.1 0-0.2 0-0.4-0.1z" style="fill: inherit;"></path>
			<path d="m20.1 56.3l0.5 0.5c-0.1-0.2-0.3-0.3-0.5-0.5z" style="fill: inherit;"></path>
			<path d="m4.7 34.2c-0.2 0 0 0.5-0.1 0.7 0.7 0.4 0.2-0.4 0.1-0.7z" style="fill: inherit;"></path>
			<path d="m20.1 55.8c-0.2-0.1-0.2 0-0.4-0.2 0.1 0.3 0.4 0.4 0.6 0.6 0-0.1-0.1-0.4-0.2-0.4z" style="fill: inherit;"></path>
			<path d="m24.4 61.1l-1.8-1.7c0.6 0.6 1.7 1.7 1.8 1.7z" style="fill: inherit;"></path>
			<path d="m28.1 66.2c-0.2-0.1-0.3-0.2-0.4-0.1 0.5 0.6 0.7 0.6 0.4 0.1z" style="fill: inherit;"></path>
			<path d="m29.2 67.1s0 0.1 0.1 0.1c-0.1 0-0.1 0-0.1-0.1z" style="fill: inherit;"></path>
			<path d="m29.2 67.1c-0.1-0.2-0.2-0.4-0.5-0.8-0.3 0.1 0.3 0.6 0.5 0.8z" style="fill: inherit;"></path>
			<path d="m42.3 81.9c-0.2-0.1-0.2-0.2-0.4-0.4v0.3c0.2 0.2 0.6 0.4 0.4 0.1z" style="fill: inherit;"></path>
			<path d="m146.2 121.9l0.6-0.6c-0.2 0.2-0.4 0.3-0.6 0.4v0.2z" style="fill: inherit;"></path>
			<path d="m128.5 74.6c0.1 0.1-0.3 0.1 0.2 0.6-0.5-0.7 0.2-0.2-0.2-0.6z" style="fill: inherit;"></path>
			<polygon points="110.3 54.9 110.6 54.8 110.5 54.6" style="fill: inherit;"></polygon>
			<path d="m21.8 123.6c0 0.5 0.2 0.7 0.3 0.9-0.2-1.8 0.1 0.4-0.3-0.9z" style="fill: inherit;"></path>
			<path d="m29.1 95.8s-0.1 0 0 0c-0.1 0-0.1 0 0 0z" style="fill: inherit;"></path>
			<path d="m84.8 29.3c-0.1 0-0.1 0 0 0s0.3-0.2 0.5-0.3l-0.5 0.3z" style="fill: inherit;"></path>
			<path d="m21.4 116.8v-0.2 0.2z" style="fill: inherit;"></path>
			<path d="m29.2 96c0.2-0.3 0.5-0.6 0.6-1.1 0.2-0.2 0.1 0.4 0.3-0.1 0.1-0.6-0.6 0.1-1 0.9 0.1 0.1 0.1 0.1 0.1 0.3z" style="fill: inherit;"></path>
			<path d="m21.9 120.2c0 0.1 0.1 0.3 0.1 0.4 0-0.1-0.1-0.3-0.1-0.4z" style="fill: inherit;"></path>
			<path d="m145.1 49.7c0-0.1 0-0.1 0.1-0.2-0.1 0-0.1 0.1-0.1 0.2z" style="fill: inherit;"></path>
			<path d="m29.2 96c-0.1 0.2-0.2 0.4-0.2 0.7 0.1-0.3 0.2-0.5 0.2-0.7z" style="fill: inherit;"></path>
			<path d="m114.4 92.4v0 0z" style="fill: inherit;"></path>
			<path d="m142.6 55.8c-0.1 0.2-0.1 0.3-0.1 0.4 0.4-0.5 0-0.2 0.1-0.4z" style="fill: inherit;"></path>
			<path d="m149.6 31.9z" style="fill: inherit;"></path>
			<path d="m21.5 121.9c0.2 0.1 0.3-0.5 0.4-0.6-0.4-0.8-0.3 0.2-0.4 0.6z" style="fill: inherit;"></path>
			<path d="m28.8 96.5c-0.1 0.1-0.3 0.3-0.3 0.4 0 0.2 0.1 0.1 0 0.4 0.2-0.2 0.2-0.5 0.3-0.8z" style="fill: inherit;"></path>
			<path d="m30.6 93.1c0.3-0.8 0.8-2.1 0.8-2.2-0.3 0.7-0.5 1.5-0.8 2.2z" style="fill: inherit;"></path>
			<path d="m34.8 86.1c0.3-0.6 0.4-0.8 0-0.4 0 0.2-0.1 0.4 0 0.4z" style="fill: inherit;"></path>
			<path d="m34.7 85.2c0.1 0.2 0.4-0.5 0.5-0.7-0.1 0.1-0.3 0.3-0.5 0.7z" style="fill: inherit;"></path>
			<path d="m35.3 84.4v0z" style="fill: inherit;"></path>
			<path d="m42.3 74.1c0 0.3 0.5-0.8 0.8-1-0.3 0.1-0.7 0.7-0.8 1z" style="fill: inherit;"></path>
			<path d="m46.1 68.6c-0.1 0.2-0.1 0.3-0.3 0.4h0.3c0.2-0.3 0.3-0.7 0-0.4z" style="fill: inherit;"></path>
			<path d="m143.2 53.3c0.1-0.1 0.2 0.2 0.4-0.4-0.3 0.6-0.1-0.2-0.4 0.4z" style="fill: inherit;"></path>
			<polygon points="129.2 75.5 129.5 75.6 129.4 75.4" style="fill: inherit;"></polygon>
			<path d="m141.4 26.1c0.1 0 0.2 0 0.3 0.1-0.1-0.1-0.2-0.1-0.3-0.1z" style="fill: inherit;"></path>
			<path d="m135.4 16.2v0 0z" style="fill: inherit;"></path>
			<path d="m144.9 5.5v0h-0.2 0.2z" style="fill: inherit;"></path>
			<path d="m154.1 11.3c0-0.1 0-0.2 0.1-0.3 0-1-0.1-2.1-0.5-3.1s-1-1.9-1.8-2.4c0-0.4-0.4-0.9-1.1-1.7 0.3 0.3-0.1 0.2-0.4 0.1-0.1-0.2-0.2-0.3-0.3-0.5-0.4-0.5-1.3-0.5-1.8-0.5-0.1-0.1-0.1-0.2-0.1-0.2-0.5-0.3-0.6 0-0.8 0.1l-0.3-0.2-0.1 0.2c-0.5 0-1.2 0-1.1-0.3-0.2 0.1-0.4 0.1-0.1 0.2-0.5-0.2-1.9-0.1-2.7 0.3 0.4 0 0.4 0.1 0.5 0.2 0 0.4-0.2 0-0.5 0.3 0-0.1-0.5-0.1-0.1-0.3-0.6 0-1.3 0.2-2 0.7-0.6 0.4-1.2 0.9-1.8 1.4-0.2 0.2-0.1 0.2-0.1 0.4-0.6 0.3-0.9 0.8-1.3 1.3-0.7-0.3-1.4-0.5-2-0.6 0.4-0.1-1-0.3-1.5-0.5-0.4 0.1-0.9 0.1-1.5 0-0.5 0-1.1-0.1-1.7-0.1-1.2 0-2.4 0-3.4 0.3l0.1-0.1c-6.1 1-11.9 4.1-17 7.3-2.9 1.7-6.5 3.2-9.6 5.3-0.5 0.4 0 0.2-0.5 0.6-0.8 0.5-0.1-0.2-0.4 0-0.3 0.3-0.7 0.5-1.2 0.8-0.2-0.4-0.4-0.9-0.6-1.3-1.1-2.5-2.5-4.7-3.7-6.3-0.7-0.9 0-0.6-0.2-1-1.3-1.7-2.5-3.6-4-5.3s-3.3-3.1-5.2-3.4c-1.4-0.4-2.4-0.2-2.9 0-0.3 0.1-0.5 0.3-0.5 0.3 0.3 0 0.7-0.1 1-0.1 0.1 0.3 0.2 0.5 0.4 0.6-0.4-1.2 0.2 0.3-0.4-0.6 0.4 0 0.8 0 1.2 0.1 0.7 0.2 1.4 0.4 2.1 0.8 1.3 0.8 2.5 1.8 3.6 3.1 1 1.2 1.9 2.6 2.7 4 0.4 0.7 0.8 1.5 1.2 2.2 0.4 0.8 0.8 1.5 1.1 2.3 0.9 1.5 2 3.5 2.8 5.3-1 0.5-2 1.1-2.9 1.7-0.2 0.2-0.7 0.6-0.5 0.6-2.4 1-5 3.4-7.4 4.6 1-0.1-1.1 1.1-1.8 1.7-0.4 0.3-0.6 0.2-0.5 0-0.1 0.1-0.3 0.2-0.4 0.3-2.2-1.8-4.6-3.6-7.2-5.1-0.6-0.9 1.3 0.6 0.9 0-0.1 0.3-0.9-0.5-2.5-1.5v-0.1c-0.7-0.4-0.9-0.8-1.7-1.2v0.1c-0.9-0.3-1.4-1.4-2.1-1.3l-0.4-0.5c-0.9-0.1-1.1-0.8-2.2-1.1h0.1c-1.2-0.9-2.9-1.1-3.2-1.6l-0.6-0.3c0.2-0.4 0.4-0.8 0.7-1.2 0.4-1.1 1.5-2.8 1.6-3.7l0.2 0.1c0.8-1.3 1.9-3.1 3-4.8 0.7-1 0.4-1.1 0.9-1.9l0.3-0.1c0.5-0.9 0.4-1.3 0.5-1.7 0.6-0.5 0.6-0.7 1.3-1.1-0.5 0.6-0.8 1.2-0.9 1.8 0.8-0.9 1.4-2.1 2.2-2.2 0.8-0.5 1.5-0.8 1.5-1.1 0.1 0 0.6-0.1 0.2 0.2 0.8-0.3 1.2-0.3 1.7-0.5h-0.5c0.3-0.3 1.1-0.3 0.9-0.6-0.4 0.1-0.4 0.1-0.9 0.2 0.1-0.1 0.5-0.2 0.9-0.2s0.9 0.1 1 0.2c0.2 0.1-0.1 0.2-0.3 0.2-0.2 0.1-0.4 0.1-0.1 0.2 0.7-0.1 1.3-0.1 2 0.1-0.5-0.1-0.9-0.4-0.7-0.5-0.3 0-0.6-0.1-0.9-0.1l0.1-0.2c-0.8-0.1-1.4-0.1-2.1-0.1-0.7 0.1-1.3 0.2-2 0.6h0.6c-0.9 0.3-1.4 1-2.2 1.3 0.3-0.3 0-0.2-0.1-0.3-0.2 0.2-0.3 0.4-0.5 0.6 0-0.2 0.1-0.4 0.1-0.6 0 0.3-0.4 0.8-0.9 1.2-0.4 0.4-0.9 0.9-1 1.1v-0.1c-1 0.9 0.3-0.1-0.3 0.7-0.5 0.6-0.5 0-1.1 0.5-0.8 1.1-1.7 3.2-2.8 4.4-0.6 1.1-1.1 2.3-1.5 3.3-0.5 0.9-0.3-0.3-0.7 0.8-0.1-0.2-0.3-0.1-0.4-0.1 0.1 0.2-0.9 1.8-0.2 1.2-0.4 0.6-0.8 1.3-1.1 2.1-0.2-0.1-0.4-0.1-0.5-0.1l0.3-0.9c-0.1 0.3-0.3 0.6-0.4 0.9h-0.2c-0.2-0.2 0-0.3 0.2-0.3-4.2-1.9-9.1-3.8-13.2-4.5-0.2-0.1 0.1-0.1 0.2-0.1-2.6-0.4-5.1-1.6-7.1-1.3l-0.7 0.1c-0.4-0.5-0.4-0.7-0.8-0.8-0.5 0.1-2.3-0.3-2.7 0-0.2-0.2 0.1-0.2 0.1-0.3-1.2-0.2-2.6 0.1-3.7 0l0.4-0.1c-2.9-0.4-6.3-0.5-9.6-0.2-3.2 0.3-6.3 1.1-8.5 2.2-1.2 0.6-0.7-0.1-1.2 0.1-0.4 0.2-0.9 0.5-1.3 0.7-0.7-0.6-1.3-1.2-2.1-1.5 0 0 0-0.1 0.1-0.1-0.4-0.1-0.8-0.3-1.3-0.4s-1-0.1-1.4 0.1c0-0.1 0-0.1 0.2-0.2-0.8-0.1-0.1 0.5-1 0.3l0.2-0.2c-0.5 0.2-1.1 0-1.7 0.4 0-0.1 0.1-0.2 0.2-0.2-0.6 0.2-1.2 0.4-1.6 0.8-0.1-0.1-0.1-0.2 0.1-0.4-0.6 0.1-0.5 0.5-1 0.6h-0.4c-0.2 0.3-0.9 0.6-1.1 0.8-0.1-0.1-0.3 0-0.7 0-0.7 0.3-1.3 0.7-1.9 1.2s-1.1 1.1-1.3 1.9c-0.2 0.7-0.2 1.6 0 2.3l0.3 0.6c0 0.1-0.1 0.1-0.2 0.2 0.1 0.1 0.4 0 0.4 0.5-0.3 0.4-0.6 1.2-0.7 1.1 0 0.4 0.1 0.5 0 0.9-0.1 0-0.1-0.2-0.1-0.3-0.2 0.6 0 1.2 0.1 1.7-0.3 0.4 0 1.5 0 2.2 0.4 0.3 0.2 1.2 0.7 1.1-0.1 0-0.1 0.1-0.1 0.2 0.2 0.3 0.5 0.4 0.7 0.7h-0.3c-0.4 0.1 0.4 0.9 0.3 1.1 0.1-0.4 0.2 0.3 0.4 0.2l0.3 0.3c0.4 0.5 0.1 0 0.7 0.6 0.3 0.3-0.2 0.3-0.2 0.2 0.1 0.4 0.5 0.6 0.8 0.8-0.1-0.1-0.1-0.1 0-0.1v0.1c0.1 0.1 0.3 0.2 0.4 0.3-0.2-0.1-0.3-0.2-0.4-0.3l0.3 0.3s0 0.1 0.1 0.1l0.3 0.3-0.2 0.1c0.3 0.2 1.3 0.4 1.3 0.2 0.3 0.2 0.8 0.3 1.3 0.2 0.5 0 0.9-0.2 1.3-0.4s0.6-0.4 0.9-0.6c0.5-0.1 1.1-0.3 1.4-0.6 0.1 0 0.2 0.1 0.2 0.2 0.6 0 0.5-0.3 0.6-0.5h0.4v-0.2c0.4-0.3 1-0.6 1.1-0.3 0.1-0.2 0.3-0.3 0-0.3 0.3-0.1 0.7-0.3 1.1-0.7 0.4-0.3 0.8-0.8 1-1.2-0.3 0.3-0.4 0.2-0.6 0.1-0.2-0.3 0.2-0.1 0.3-0.5 0.1 0.1 0.5-0.1 0.3 0.2 1.1-0.6 1.7-2.2 2.4-3.4 0.1-0.3 0-0.2 0-0.4 0.7-0.6 0.8-1.7 1.4-2.6-0.2 0.2-0.5-0.3-0.3-0.8-0.1-0.7 0.5-0.1 0.8-0.7-0.1-0.3 0-0.9 0-1.2-0.1-0.4-0.3-1-0.4-1.5v0.1c-0.1-0.4-0.2-0.9-0.4-1.2-0.3 0-0.8-0.8-1.1-0.8v-0.1l-0.4 0.6c-0.1-0.2-0.3-0.3-0.4-0.4 0.1 0 0.1-0.1 0.2-0.1h0.2l-0.1-0.1c1.5-0.6 3.1-1 4.8-1.4 2.6-0.7 6.3-1.3 8.8-1.3 2.7-0.2 5.4-0.1 8.1 0.2s5.4 0.8 8 1.4c5.3 1.3 10.5 3.3 15.5 5.5-0.5-0.3 0.1-0.2 0.7 0l0.1 0.1 0.4 0.1-0.3 0.6c0.2-0.5 0.1-0.7-0.2-0.4-0.1 0.8-0.5 2.1-1.1 3.3 0.2 0.1 0.4-0.3 0.6-0.1 0 0.2-0.1 0.5-0.2 0.9-0.3 0.1-0.7-0.1-1.2 1-0.2-0.5 0.9-1.9 0.3-1.6-0.1-0.6 0.8-2.7 1.2-3.1 0.1-1.1-0.4 0.8-0.6 0.4-0.4 0.9-0.4 1.4-1 2.9 0.2 0.1 0.4-0.4 0.2 0.3-0.2 1.4-0.9 1.5-1.1 1.8 0-0.2 0.1-0.5 0.2-0.7-0.5 0.8-0.4 1.2-0.8 2.1-0.3 0-0.1-0.3 0-0.8 0.2-0.4 0.4-0.9 0.4-1.1l-0.6 0.5c-0.6 1.4 0.2 0.5-0.5 1.9l-0.1-0.2-0.1 1.1c0.2 0.1 0.5 0 0.7-0.8 0.2 0.7-0.2 0.7-0.6 2 0.1 0.5 0.2-0.5 0.4-0.5 0.3 0 0 0.8-0.2 1.4-0.4 1-0.4 0.4-0.8 0.8 0-0.2 0.3-1 0.4-0.9 0.2-1.3-0.7 0.4-0.5-0.6-0.5 0.9-0.2 1-0.3 1.5 0.1-0.3 0.2 0.2 0.4 0 0.1 1.9-0.9 0.9-1.3 2.5 0.5-0.2-0.1 2.3 0.8 1.3 0 0.4-0.1 0.9-0.3 1.3-0.2-0.5-0.4 0.6-0.5-0.2l-0.2 0.8-0.1-1c-0.4 0.6-0.9 1.6-1.2 1.9-0.1 0.9 0.4-0.2 0.1 0.8 0-0.4-0.4 0.2-0.5 0.6 0.4-0.8 0.4 0.1 0.3 0.7-0.2 0.9-0.6 1.5-0.7 1.4v-0.9c0.1 0.7-0.2 0.3-0.2 0.9 0.1 0.2 0.3 0.7 0.4 1-0.1 0.6-0.4 0.9-0.4 1.1v-0.9c-0.2 1.2-0.5 0.1-0.7 1.4l0.2 0.4c-0.1 0.2-0.2 0.3-0.3 0.1 0.3 0.1 0.1 0.8 0.1 1.1h-0.2c0 0.5 0.2 1.2-0.2 1.8 0.5-0.4 0.1-0.6 0.5-1.4 0.4-0.5 0 0.9 0.1 1.1-0.4-0.1-0.3 1.3-0.4 1.9-0.2 0.3-0.3 0.6-0.4 0.8l0.2 0.3c-0.5 0.1-0.1 1.2-0.4 1.9-0.1-0.4-0.3-0.4-0.5 0.1 0.5-0.6 0.3 1.1 0.6 1-0.4 1.2-0.4-0.4-0.8 0 0.2 0.7-0.4 1.4-0.1 1.8 0.2-0.9 0.2 0.2 0.4 0.4-0.2 1.1-0.1-0.2-0.4 0.6 0 0.5 0.2 1.1 0.4 0.4-0.2 0.6 0.1 1.4-0.2 2.2-0.3 0.3 0.1-1.4-0.2-1-0.2 1.4 0.4 1 0.4 2 0 0.1-0.1 0.1-0.1 0.2-0.1 0.1-0.2 0.2-0.4 0.3-0.1-0.2-0.2-0.2-0.3 0v0.2c-0.1 0.1-0.2 0.1-0.2 0.2-0.1 0-0.1 0-0.2 0.1-0.8 0.8-1.7 1.7-2.2 2.3-1 1.4-1.4 1.9-1.9 3-0.4 0.5-0.8 0.7-1 0.8-1.4 1.6-3 3.1-3.7 4.7l-0.2-0.1c-0.4 0.8-1 1.7-1.5 2.6-0.5 0.7-0.9 1.4-1.4 2.1-0.4-0.5-0.8-0.9-1.1-1.4-0.5-0.3-1.8-1.7-1.4-0.9-0.5-0.5-0.1-0.6-0.8-1l0.7 0.4c-2.8-3.3-5.4-6-8.3-9.1-0.5-1.2-2.7-3-4.1-5-1.1-0.9-2.4-3-3.4-3.5l0.1-0.2c-1.2-1.5-2.8-3.4-4.3-5.4-0.9-1.1-1.1-1-1.9-1.8l0.1-0.2c-0.9-0.9-1.3-0.9-1.8-1.2-0.5-0.8-0.7-0.8-1.2-1.7 0.7 0.6 1.3 1.1 1.9 1.4-0.9-1.2-2.2-2.1-2.6-3-0.7-1-1.4-1.7-1.7-1.7 0-0.1-0.4-0.7 0.1-0.3-0.6-0.7-1-1.2-1.4-1.6 0.1 0.1 0.2 0.4 0.4 0.5-0.5-0.2-1-1-1.1-0.6 0.4 0.3 0.4 0.3 0.8 0.8-0.3-0.1-1.4-1.3-1.5-1.7-0.1-0.5 1 0.6 0.6 0l-1.9-1.6c0.4 0.4 0.7 0.9 0.4 0.9l0.7 0.7-0.2 0.1c1.1 1.3 1.7 2.4 3 3.7l-0.2-0.7c0.7 0.8 1.6 1.5 2 2.4-0.4-0.3-0.2 0-0.3 0.1 0.2 0.2 0.4 0.3 0.6 0.6l-0.6-0.1c0.7 0 2 2.1 2.3 2.4l-0.1-0.1c0.9 1.3 0-0.3 0.7 0.5 0.5 0.7-0.1 0.5 0.3 1.3 1 1.2 3 3.2 3.9 4.7 1 1 2.1 2.2 3 3 0.8 1-0.4 0.2 0.6 1.1-0.2 0-0.2 0.2-0.2 0.4 0.2 0 1.5 1.8 1.1 0.8 1.1 1.5 2.5 3.1 3.8 4.5-0.4-0.5-0.7-0.4-0.5 0 0.8 0.5 1.9 1.6 2.9 2.9 0.2-0.2-0.2-0.6 0.1-0.6 0.2 0.2 0.5 0.4 0.8 0.7 0 0.3-0.4 0.6 0.6 1.7-0.6 0-1.6-1.9-1.5-1.2-0.7-0.3-2.4-2.3-2.7-2.9-1.1-0.8 0.6 0.8 0.2 0.8 0.8 0.9 1.3 1.2 2.5 2.5 0.1-0.1-0.2-0.6 0.4 0 1.3 1 1.1 1.7 1.4 2-0.2-0.2-0.4-0.4-0.6-0.5 0.6 0.9 1 1 1.8 1.9-0.1 0.5-1.2-1.3-1.7-1.5l0.3 0.8c1.1 1.3 0.6 0.1 1.7 1.6l-0.3-0.1 0.8 0.8c0.1-0.1 0.2-0.5-0.5-1.2 0.8 0.2 0.6 0.6 1.7 1.7 0.5 0.2-0.5-0.5-0.3-0.7 0.1-0.3 0.8 0.5 1.3 1.1 0.8 0.9 0.2 0.7 0.4 1.2-0.2-0.2-0.9-0.9-0.7-0.9-1.2-1 0.1 0.9-0.8 0.2 0.7 1 0.9 0.8 1.4 1.2-0.2-0.3 0.3 0 0.2-0.3 1.9 1.1 0.5 1.3 1.9 2.7 0-0.2 0.4 0 0.8 0.2-0.1 0.2 0 0.3 0.2 0.1-0.4 0.6-0.5 0.2-0.8 1l0.1-0.8c-2.5 3.6-4.2 6.9-6 10.6-0.9 0.9-1.8 3.6-3 5.7-0.4 1.3-1.6 3.5-1.6 4.6h-0.2c-0.7 1.7-1.6 4.1-2.5 6.4-0.5 1.3-0.2 1.4-0.5 2.5h-0.2c-0.2 1.2 0 1.6 0.1 2.1-0.4 0.9-0.3 1-0.6 1.9 0.1-0.9 0.1-1.7 0-2.4-0.5 1.4-0.3 3-0.8 3.9-0.3 1.2-0.4 2.2-0.2 2.4-0.1 0.1-0.2 0.7-0.3 0.1-0.1 0.9-0.1 1.6-0.1 2.1 0-0.2 0.1-0.4 0.1-0.6 0.2 0.5 0.1 1.4 0.4 1.2 0-0.5-0.1-0.5 0-1.1 0.2 0.3 0.2 1.9 0 2.3-0.2 0.5-0.3-1.1-0.5-0.4 0.1 0.8 0.3 1.5 0.5 2.3-0.1-0.5 0-1 0.2-0.8 0-0.3-0.1-0.7-0.2-1l0.2 0.1c-0.1-1.7 0.3-2.9 0.3-4.6l-0.3 0.6c0.1-1 0-2.1 0.5-3 0 0.5 0.2 0.2 0.3 0.2 0-0.2 0-0.5 0.1-0.8l0.3 0.5c-0.4-0.6 0.5-2.8 0.5-3.2v0.2c0.6-1.4-0.3 0.2 0-0.8 0.3-0.8 0.5-0.2 0.9-0.9 0.5-1.5 1-4.2 1.9-5.7 0.4-1.3 0.8-2.8 1.2-4 0.5-1.2 0.3 0.2 0.7-1 0.1 0.2 0.3 0.1 0.4 0 0-0.1 0.1-0.5 0.3-0.8 0.2-0.5 0.4-1 0-0.5 0.8-1.6 1.7-3.5 2.5-5.2-0.3 0.6-0.1 0.8 0.2 0.4 0.2-0.9 0.8-2.3 1.6-3.7-0.2-0.1-0.5 0.4-0.6 0.1 0.1-0.2 0.2-0.6 0.4-1 0.3-0.1 0.7 0.2 1.4-1.1 0.2 0.5-1.2 2.1-0.6 1.7 0 0.4-0.3 1.1-0.7 1.8s-0.7 1.4-1 1.6c-0.3 1.3 0.5-0.9 0.7-0.5 0.5-1 0.6-1.6 1.4-3.2-0.1-0.1-0.5 0.4-0.2-0.4 0.4-1.6 1.2-1.6 1.4-1.9-0.1 0.2-0.2 0.5-0.3 0.7 0.6-0.8 0.6-1.3 1.2-2.2 0.6 0-0.9 1.6-0.8 2l0.7-0.5c0.9-1.4-0.1-0.6 0.9-2v0.3c0.2-0.3 0.3-0.7 0.5-1-0.1-0.1-0.5-0.1-1 0.8-0.1-0.8 0.4-0.8 1.1-2.1 0-0.5-0.3 0.5-0.6 0.4-0.3 0 0.3-0.9 0.7-1.5 0.7-1 0.6-0.4 1-0.7 0 0.1-0.1 0.3-0.3 0.5l-0.3-0.2c0.1 0.1 0.1 0.2 0.2 0.4-0.1 0.2-0.2 0.3-0.3 0.2-0.6 1.4 0.8-0.3 0.4 0.7 0.1-0.1 0.2-0.2 0.2-0.3 0.3 0.5 0.6 1 0.7 1.3 0.8 0.7 0-0.4 0.9 0.4-0.4-0.2 0 0.4 0.4 0.8-0.6-0.9 0.3-0.3 0.8 0.2 0.7 0.8 1.1 1.6 0.9 1.5l-0.9-0.6c0.7 0.4 0.1 0.3 0.8 0.9 0.3 0.1 0.8 0.2 1.1 0.3 0.5 0.4 0.7 1 0.9 1.1l-0.9-0.7c1 1-0.1 0.5 0.9 1.5l0.4 0.1c0.2 0.2 0.2 0.4-0.1 0.3 0.3 0.1 0.8 0.7 1.1 0.9v0.2c0.5 0.4 1.3 0.7 1.6 1.4-0.1-0.7-0.5-0.5-1.1-1.4-0.2-0.7 0.9 0.6 1.1 0.7-0.3 0.2 1.1 1.2 1.6 1.7 0.2 0.4 0.4 0.7 0.5 1h0.4c-0.2 0.6 1.1 1 1.6 1.7-0.4-0.2-0.5 0-0.2 0.5-0.2-0.6 0.7 0.1 1.1 0.2 0 0.2 0.1 0.3 0.1 0.5-0.2-0.1-0.4-0.1-0.4 0.1 0.2 0.1 0.3 0.2 0.5 0.3 0.1 0.3 0.1 0.7 0.2 1 0.2 0.5 0.2 0.3 0.3 0.5 0 1.5 0.8 3.2 1 4.8 0.1-0.4 0.6 0 0.8 0.9 0.6 0.8-0.3 0.5-0.2 1.4 0.3 0.4 0.5 1.2 0.6 1.5h-0.1c0.3 0.5 0.6 1.2 0.7 1.9v-0.1c0.1 0.5 0.1 1.1 0.3 1.7 0.3 0.2 0.6 1.4 1 1.7 0 0.1-0.1 0-0.1 0.1h0.2l0.3 1.1c-0.2-0.2-0.3-0.2-0.4-0.5 0.3 1.1 0.3 0.3 0.7 0.8 0.4 0.7 0.2 0.7 0.3 1.1-0.2-0.3-0.2-0.6-0.3-0.7-0.3-0.4 0.1 0.5 0 0.5 0.1 0.2 0.3 0.1 0.5 0.7 0.2 0.5 0.7 1.6 0.4 1.5 0.3 0.4 0.4 0.8 0.7 1.1-0.1-0.4-0.3-1.1-0.2-1.3 0.2 0.3 0.5 1 0.5 1.2l-0.2-0.3c0.2 0.3 0.5 1.3 0.5 0.7v0.8c0.3 0.2 0.6 0.9 0.9 1.5-0.2 0.1-0.7-0.2-0.2 0.9l0.7 0.8c0.3 0.5 0.3 0.6 0.1 0.6 0.8 1.7 1.5 1.4 2 2.8-0.6-0.4-0.3 0.1-0.1 0.7 0.1 0 0.2 0 0.3 0.2 0-0.2-0.4-0.2-0.5-0.8 0.1-0.2 0.4 0.5 0.6 0.7 0.1 1.4 2 3.5 3.2 5.2l-0.3 0.3c-0.6 0.1-0.6 0-1.1 0.1-0.4 0.4-2.1 1-2.3 1.3-0.3 0 0.1-0.2 0-0.2-1.1 0.3-2.3 1.2-3.4 1.5l0.3-0.2c-2.9 0.7-6.2 1.3-9.4 1.7-1.6 0.1-3.2 0.4-4.6 0.4-0.7 0.1-1.4 0.1-2.1 0.2-0.7 0-1.3 0-1.9 0.1-1.3 0-0.6-0.4-1.1-0.4-1.2 0-2.5-0.2-3.8-0.3-1.3-0.2-2.6-0.6-3.9-1-2.5-0.9-4.8-2.1-6.8-3.4-1.4-1.1-2.3-2-3-2.5-0.6-0.5-0.9-0.7-0.9-0.7 1.2 2.1 2.9 3.7 4.7 5s3.8 2.2 5.8 2.9 4.1 1.2 6.1 1.5c0.5 0.1 1 0.2 1.6 0.3 0.5 0.1 1.1 0.1 1.6 0.2s1.1 0.1 1.6 0.2c0.5 0 1.1 0 1.6 0.1 3 0 6.8-0.8 9.5-1.2 4.5-1.1 8.9-2.5 13.2-4.4 0.1 0.1 0.1 0.1 0.2 0.1-0.4 0.2 0.9 0.8 1.2 1.4v-0.5c0.8 1.1 1.9 1 2.3 1.9 0.5 0.6-0.4 0.1-0.6-0.1 0.5 1 2.4 1.4 2.9 2.2 0.2-0.1 0-0.4 0.9-0.1 0.5 0.5 1.7 1.3 1.6 1.3 0.6 0.2 0.8 0.1 1.3 0.5-0.1 0.1-0.4 0-0.6-0.1 0.7 0.4 1.3 0.6 2 0.7 0 1.2 0.4 2.2 0.8 3.2-0.1-0.1 0.1-0.3 0.2-0.1-0.3 0.4 0.5 0.6 0.6 1-0.1 0-0.2-0.1-0.3-0.2 0.5 1 1.4 1.4 2.1 2.2 0.9 0.4 1.8 1.2 2.5 1.1-0.2 0.1 0.4 0.2 0.6 0.4 0.4-0.2 0.8-0.1 1.3 0s1 0.2 1.4 0v0.1c1.3-0.1 2.7-0.5 3.9-1.3s2.2-2 2.7-3.3c0.1-0.3 0.3-0.6 0.4-0.9 0.3-0.4 0.5-0.8 0.8-1.2 0.5-1 0.8-2.2 0.8-3.4 0.6-0.4 1.2-0.9 1.8-1.4 0.7-0.7 1.3-1.4 1.6-1.8-0.1 0.2-0.1 0.3 0 0.1 0.4-0.5 0.7-1.1 0.8-1.1 0.3-0.5 0.5-0.3 1-1 0.1 0-0.1-0.2-0.2 0 1.2-1 1.8-3 2.9-4.5-0.1 0.1 0 0.4 0 0.5 0.6-1.3 1.1-2.5 1.3-3.8 0 0.2 0.1 0.2 0.1 0.5 0.3-0.6 0.5-1.2 0.6-1.7 0.4 0.1 0.8 0.1 1 0.2 0.7 0 1.7 0.1 2.4 0.3h-0.1c0.6 0.1 1.3 0.4 1.9 0.5 0.3-0.2 1.9 0.2 2.3 0 0.1 0 0 0 0.1 0.1l0.1-0.2 1.3 0.3c-0.3 0-0.4 0.1-0.7 0.1 1.3 0.4 0.5-0.1 1.2-0.1 1 0 0.9 0.2 1.3 0.3-0.4 0.1-0.7-0.1-0.9-0.1-0.6 0.1 0.6 0.2 0.6 0.3 0.2 0 0.3-0.2 1-0.1 0.6 0.1 2 0.2 1.8 0.4 0.5-0.1 1.1 0.1 1.5 0-0.5-0.1-1.4-0.3-1.5-0.5 0.4 0 1.3 0.1 1.5 0.2h-0.4c0.4 0 1.7 0.2 1-0.1l0.9 0.4c0.4-0.1 1.3 0 2.1 0 0 0.2-0.6 0.5 0.8 0.7l1.3-0.1c0.6 0 0.8 0.1 0.7 0.3 2.2 0.4 2.3-0.4 4.1-0.1-0.8 0.2-0.2 0.3 0.6 0.5 0 0 0.1-0.1 0.4-0.1-0.2-0.2-0.5 0.2-1.1-0.1-0.2-0.2 0.7-0.1 1.1-0.1 1.5 0.8 5.2 0.8 8 0.6-0.2-0.3 1.2-0.3 1.7-0.7 0 0.2 0.4 0.1 0.8-0.2 0.5-0.2 1-0.6 1.4-0.8-0.2 0-0.4 0-0.6-0.1 0.8-0.4 1.2-1 1.6-1.5 0.3-0.5 0.5-1 1-1.3 0.6-0.8 0.1 0.4-0.1 0.8 0.5-0.5 0.9-1.4 1.1-2.2 0.2-0.9 0.2-1.6 0.5-2.1-0.1-0.1-0.4 0.2-0.5-0.9 0.2-0.9 0.2-2.6 0.3-2.5-0.2-0.7-0.3-0.9-0.3-1.7 0.1 0 0.2 0.4 0.3 0.6-0.1-1.3-0.5-2.2-1-3.2 0-0.4-0.2-1-0.4-1.8s-0.5-1.6-0.7-2.3c-0.6-0.6-0.7-2.2-1.2-2.1 0.1 0 0-0.2 0-0.3-0.3-0.4-0.8-0.7-1-1.3l0.4 0.1c0.4 0-0.7-1.7-0.7-2 0 0.6-0.3-0.7-0.6-0.6l-0.4-0.6c-0.6-1.1-0.2-0.1-0.9-1.4-0.4-0.7 0.2-0.4 0.3-0.1-0.2-0.7-0.6-1.3-1.1-1.9 0.1 0.2 0.1 0.3 0 0.1v-0.2c-0.2-0.2-0.3-0.5-0.5-0.7 0.2 0.3 0.3 0.5 0.4 0.7-0.1-0.2-0.2-0.4-0.4-0.7 0 0 0-0.1-0.1-0.2l-0.3-0.6 0.3 0.1c-0.3-0.5-1.3-1.6-1.3-1.5-0.9-1.9-3-4.6-3.9-5.7 0.2 0.2 0.3 0.2 0 0-0.4-0.6-1.1-1.1-1-1.2-0.5-0.5-0.2-0.6-0.9-1.5 0 0-0.3 0-0.1 0.2-0.8-1.6-2.5-3.1-3.6-4.8l0.1-0.1c0.1 0.1 0.2 0.1 0.3 0.2-0.1-0.1-0.2-0.2-0.2-0.3 3.1-3.9 6.1-7.8 8.9-12 3.3-5 6.3-10.2 8.6-16 0.3-1.9 1.4-4.3 1.6-6.6l0.1 0.2c0.3-1.9 0.7-2.3 1.4-4.6-0.2-0.1 0.1-0.9-0.2-0.6-0.1-0.9 0.7-1.4 0.7-2.7 0.1 0-0.2 0-0.1-0.2 0-1.6 0-1.4 0.1-1.4 0.1 0.1 0.4 0 0.6-2 0-2.8-0.3-5.7-1-8.5-0.2-0.8-0.5-1.7-0.8-2.5l0.1-0.1h-0.1c0-0.1-0.1-0.2-0.1-0.2 0.1-0.2 0.2-0.6 0.3-0.7 0.2-0.1 0.4-0.2 0.5-0.3l-0.2-0.3c0.5 0.2 0.3-0.7 0.6-0.9 0 0.3 0.2 0.3 0.4 0.1-0.5 0.1-0.1-0.8-0.4-0.8 0.5-0.6 0.3 0.4 0.7 0.3-0.1-0.5 0.6-0.6 0.3-1-0.3 0.4-0.2-0.2-0.3-0.4 0.3-0.6 0.1 0.2 0.4-0.2 0.1-0.3-0.1-0.7-0.3-0.4 0.2-0.3 0.1-0.9 0.4-1.2 0.3-0.1-0.2 0.8 0.1 0.6 0.3-0.9-0.3-0.7-0.2-1.4 0.1-0.1 0.2-0.3 0.3-0.5 0.1 0.3 0.2 0.7 0.4 0.5v-0.5c0.1 0.1 0.3 0.3 0.4 0.2-0.2-0.2 0.2-1 0.1-1.1-0.2-0.1 0 0.4-0.2 0.3 0-0.5-0.3-0.7-0.1-1.4 0.1 0.2 0.2 0.2 0.2 0.1v0.1-0.1c0.1-0.1 0.1-0.1 0.2 0 0.8 0.1 0.7 0.1 0.6 0zm-149.1 13.9c-0.6-0.8-1-1.8-1.4-2.7l0.1-0.1c0.6 0 0.5 0.5 1.1 0.6h-0.1c0.1 0.1 0.2 0.1 0.2 0.2l-0.4-0.1c0.5 0.1 0.7 1.3 0.9 1.4h-0.1c0.2 0.8 0.1-0.2 0.4 0.2 0.1 0.4-0.3 0.3-0.2 0.8 0 0.1 0.1 0.1 0.1 0.2-0.3-0.1-0.4-0.3-0.6-0.5zm6.7 0.1l0.2-0.2-0.2 0.2zm-2.5 1.3l-0.1-0.2c-0.2 0.1-0.4 0.2-0.7 0.2h-0.2c-0.2-0.8-0.4-1.6-0.4-2.4 1.1 0 2.2-0.6 2.9-1.4 0.4-0.4 0.7-0.9 0.9-1.4-0.1 0.2-0.1 0.5-0.2 0.8-0.5 0.4-0.7 1.8-1.4 2.6 0 0.2-0.1 0.3-0.2 0.5 0 0.1-0.1 0.2-0.1 0.3l-0.1 0.2c-0.2 0.2-0.3 0.5-0.4 0.8zm-2-0.9c-0.1-0.2-0.2-0.3-0.4-0.4-0.1-0.1-0.3-0.2-0.5-0.4l0.2-0.1c-0.4-0.5-0.7-0.5-1-0.6-0.1-0.4-0.2-0.5-0.2-0.7 0.1 0 0.2 0.1 0.2 0.1 0.3 0.2 0.5 0.3 0.8 0.4 0 0 0-0.1-0.1-0.1 0.3 0.1 0.6 0.2 0.8 0.2 0.1 1.1 0.4 1.8 0.7 2.2 0 0.1 0.1 0.1 0.1 0.2-0.2-0.2-0.4-0.5-0.6-0.8zm4.8-9.7c0.3 0.1 0.5 0.9 0.6 0.5 0.1 0.3-0.3 0.2-0.1 0.6l-0.3-0.3c0.1 0.7 0 1.3-0.1 2 0-0.2 0.1-0.4 0.1-0.6 0-0.6-0.1-1.2-0.5-1.5l-0.3-0.1c0.3-0.2 0.4-0.4 0.6-0.6zm0 3.8c0 0.1 0 0.2-0.1 0.3 0-0.1 0-0.2 0.1-0.3-0.1 0 0 0 0 0zm-1.8-1.5c0 0.5-0.1 0.9-0.2 1.4-0.1 0.4-0.3 0.8-0.6 1.2-0.2 0.3-0.5 0.6-0.8 0.8-0.1 0.1-0.3 0.2-0.4 0.2 0-0.1 0-0.2 0.1-0.2 0.4-1.4 1.1-2.6 1.9-3.7 0 0 0.1 0.1 0 0.3zm-0.9-2.3c-0.3-0.6-1-0.6-1.4-0.4-0.3 0.1-0.6 0.3-0.6 0.5v0.2h0.1c0.1 0 0.2 0.2 0.3 0.3l0.1 0.1c0.1-0.1 0.3-0.1 0.4-0.1v0.1c0 0.1-0.1 0.2-0.2 0.4-0.2 0.2-0.4 0.3-0.6 0.4-0.1 0-0.3 0-0.4-0.1-0.2-0.2-0.2-0.3-0.2-0.8-0.1-0.3 0-0.7 0.1-0.9s0.4-0.4 0.7-0.4c0.6-0.2 1.5 0.2 2 0.7 0.1 0.1 0.2 0.2 0.3 0.4-0.1 0.2-0.3 0.3-0.4 0.5-0.1-0.4-0.1-0.7-0.2-0.9zm-1.9 0.2s-0.1 0 0 0c-0.1 0-0.1 0 0 0zm3.5-1c-0.1-0.1-0.2-0.1-0.2-0.1 0-0.2 0.1-0.1 0.2-0.1s0.1 0 0.2 0.1c-0.1 0-0.1 0-0.2 0.1zm-7.4 3.3v0.2c-0.1 0-0.1-0.1 0-0.2zm0.3 0.7c0.2-0.9 0.6-1.7 1-2.5 0.1 0.6 0.4 1.1 0.8 1.4 0.2 0.1 0.2 0.2 0.2 0.3h-0.2c0 0.2 0.1 0.2 0.1 0.2s0 0.1 0.1 0.1c0.8 0.4 1.8 0.3 2.5-0.2-0.6 1.1-1 2.2-1.1 3.3-0.4-0.2-0.9-0.5-1.4-0.9-0.2-0.1-0.3-0.3-0.5-0.4v-0.1 0.1l-0.2-0.2c-0.1-0.1-0.1-0.2-0.3-0.2 0 0-0.1 0-0.1-0.1 0-0.2 0.1-0.4 0.2-0.5s0.1 0.6 0.3 0.3c-0.1-0.4-0.1-0.9-0.1-1.4 0 0.3-0.3 0.7-0.4 0.5v0.5l-0.2-0.1c0 0.2-0.1 0.3-0.1 0.4-0.2-0.1-0.4-0.3-0.6-0.5zm8.9 2.4v-0.5c0.3 0 0.7 0.1 0.9-0.6v0.1c-0.2 0.3-0.4 0.7-0.6 1-0.1 0.1-0.2 0.2-0.3 0zm1.6-3.8c-0.2 0.1-0.2-0.5-0.3-0.9-0.1-0.6 0.1-0.5 0.3-0.6 0.1 0.5 0.1 1 0 1.5 0.1 0 0 0 0 0zm0.3-2.2c0.1 0.2 0.1 0.3 0.1 0.3 0-0.1 0-0.2-0.1-0.3zm-0.6-0.4c0.1 0.2 0.1 0.3 0.2 0.5-0.2-0.2-0.2-0.4-0.2-0.5zm0.3 8.9zm-9.9 6.1c0.1 0 0.2 0.1 0.3 0.1-0.1 0-0.2-0.1-0.3-0.1zm7.9-3.3v0zm141.8-16.7v0zm-12.2 13.8c-0.3-0.1-0.1-0.4-0.4-0.3 0.1 0 0.3-0.1 0.4-0.1-0.7-0.3-1.3-0.9-1.8-1.5 0.3 0.1 0.6 0.2 0.9 0.2 0.8 0.1 1.6 0 2.3 0.1-0.1-0.3 0.6-0.2 0.8-0.4 0 0.4 0.7-0.2 1.1-0.2l-0.3-0.3c0.8-0.1 1-1 1.6-0.8 0.4-0.1 0 0.3-0.1 0.4 0.5 0 0.9-0.5 1.3-0.8v0.1c-0.1 0.3-0.2 0.5-0.3 0.9-0.2 0.2-0.4 0.2-0.6 0.3-0.7 0.7-1.5 0.9-1.9 1.6l-0.1-0.2c-0.2 0.3-0.6 0.5-0.9 0.7-0.4 0.1-0.8 0.2-1.1 0-0.4 0.1-1.2-0.1-0.9 0.3zm-6.3-7.4zm15.2-7c0.1 0 0.2 0 0.3 0.1 0.1 0.6 0.1 1.2 0.2 1.8-0.2 0.4-0.5 1-0.9 1.6v0.1c0-1.2-0.2-2.5-0.8-3.6 0-0.1-0.1-0.2-0.1-0.2 0.3 0.1 0.6 0.3 1.1 0.5-0.1-0.2 0.2 0 0.2-0.3zm-12.3 8.1c-0.5-0.7-0.7-1.8-0.7-3.1 0-0.7 0.3-1.4 0.6-2.1 0 0 0-0.1 0.1-0.1 0.1 0.5 0.3 0.8 0.5 1.1-0.1 0.3 0.2 1 0.3 1.3-0.1 0.2-0.1-0.2-0.2-0.2-0.1 0.2-0.1 0.3-0.1 0.5-0.2-0.5-0.3 0.2-0.5-0.1 0.2 0.4 0.5 1.6 1 2.2 0-0.6 0.8 0.7 1.1 0.3 0.6 0.5 0.1 0.5 0.3 0.8 0.8 0.4 1.6 0.8 2.4 0.8v0.1h0.8c-0.1 0-0.3 0.1-0.4 0.2 0.1-0.2-0.4-0.1-0.6-0.1-0.2 0.3-0.7 0.3-1.1 0.2s-0.8-0.2-1.2-0.1v-0.1c-1-0.3-1.8-0.8-2.3-1.6zm0.4-6h-0.1c0-0.1 0.1-0.1 0.1-0.2v0.2zm0.3-1.7zm1.6 2.2c0.1-0.2 0.1-0.4 0.2-0.6 0.2 0.6 0.4 1.2 0.8 1.7 0.3 0.5 0.8 0.8 1.3 1.1 0.4 0.2 0.8 0.2 1.2 0.2 0.4 0.3 0.6 0.5 0.9 1-0.1 0-0.3-0.2-0.5-0.4 0.3 0.5 0.6 0.9 0.9 1.3-0.9 0.4-2 0.4-2.8 0-0.8-0.3-1.3-0.8-1.7-1.7-0.5-0.8-0.6-1.8-0.3-2.6zm4.8 6.2l0.2-0.2-0.2 0.2zm1.5-8.5c1.1 1.5 1.3 3.6 0.5 5-0.3-0.3-0.7-0.7-1-1.1 0.1 0 0.2 0.1 0.3 0l0.1 0.1v-0.1-0.1c0.2-0.6 0.2-1.2 0-1.8s-0.5-1.1-1-1.5-1.2-0.4-1.7-0.1c-0.1 0.1-0.2 0.1-0.3 0.2-0.1-0.1-0.2-0.2-0.4-0.3-0.1-0.3 0-0.1-0.1-0.1-0.1-0.1-0.3-0.2-0.4-0.3 0.8-0.3 1.6-0.4 2.6-0.4 0.3-0.2 0.7-0.3 1.1-0.3 0.1 0.3 0.2 0.5 0.3 0.8zm-2-3.1c0.1-0.1 0.1-0.1 0 0 0.1-0.1 0.1-0.1 0 0zm-3.3 1v0 0zm-0.8 0.4h-0.2c0-0.1 0.1-0.1 0.3-0.1 0 0.1 0 0.1-0.1 0.1zm-5.3 8.1zm8.2-10.5c-0.5-0.4 0.5-0.4 0.8-0.6 0.2 0 0.2 0.1 0.2 0.2 0.7-0.2 1.2-0.2 2 0 0.4 0 0.6-0.2 1 0 0.2 0.4 0.9 0.4 1.2 0.8 0.1-0.3 0.7-0.1 1 0.3-0.1 0-0.3 0.1-0.4 0.2 0.2 0.2 0.4 0.4 0.6 0.7-0.4 0-0.7-0.1-0.9-0.1 0.1 0 0.2-0.1 0 0-0.3 0-0.8 0.1-0.8 0-0.3 0-0.3-0.2-0.8-0.3 0-0.1-0.1 0.2 0 0.2-0.5-0.3-1-0.2-1.6-0.2-0.3-0.5 0.7 0 0.5-0.3-0.1 0.3-0.5-0.1-1.4-0.2v-0.1c-0.4 0-0.6-0.2-1-0.1v0.1c-0.2 0.1-0.5 0-0.7 0s-0.4 0-0.5 0.2l-0.4-0.1c-0.3 0.5-0.7 0.2-1 0.8v-0.1c-0.3 0.1-0.5 0.4-0.6 0.7h-0.1c0-0.1 0.2-0.3 0-0.4 1-0.5 1.8-1.6 2.9-1.7zm-7.3 3.2zm-48.3 21.4c-0.7 0.4-0.7 0.2-0.9 0.1 0-0.4 0.3-0.2 0.8-0.7 0.1 0.1 0.8-0.2 0.2 0.3 2.1-0.9 4.4-2.8 6.8-4.2 0.4-0.3 0.3-0.3 0.4-0.5 1.1-0.4 2.2-1.2 3.3-2 3.4 8 5.2 16.7 7.1 25.5 0-0.5 0.3 0 0.4 0.4l-0.1 0.1 0.3 0.7c0.1 0.7-0.2 0.4-0.3-0.1 0 0.1 0 0.2 0.1 0.4l-0.4-0.4s0-0.1 0.1 0c-1.1-1-2.8-2.9-4.1-3.7 0.1 0 0.1-0.2 0.4 0.1-1-1.3-0.5 0.1-1.7-1.4l0.4 0.2c-1-0.7-1.5-1.7-2.6-2.5 0-0.1 0.3 0.1 0.4 0.2-0.9-0.8-1.9-1.8-2.8-2.3 0-0.2 0.2-0.2 0.6 0.1-0.8-0.9-1.2-0.7-1.9-1.5-0.2-0.2-0.5-0.8-0.4-0.6-0.5-0.3-1.7-1.4-2.2-1.8 0-0.2-0.3-0.5-0.8-1.1-1.5-1.4-3.1-2.8-4.7-4.1 0.5-0.4 1.1-0.8 1.6-1.2zm39.1 47.6c-0.7 0.9-1.4 1.7-2.1 2.5 0 0-0.1 0 0-0.1-0.9 1.2-2.6 3-3.3 4.3 0-0.1-0.2 0 0.1-0.4-1.2 1.1 0.2 0.5-1.3 1.8l0.2-0.4c-0.7 1-1.6 1.6-2.3 2.7-0.1 0 0.1-0.3 0.2-0.4-0.8 0.9-1.7 1.9-2.3 2.8-0.2 0-0.2-0.2 0.1-0.6-0.9 0.8-0.7 1.2-1.5 1.9-0.2 0.2-0.6 0.4-0.6 0.4-0.3 0.5-1.4 1.6-1.8 2.1 0 0-0.1 0-0.2 0.1 0-1.3 0.1-3.3-0.2-4.6 0.1 0.1 0.1-0.1 0.2 0.3 0.1-1.4-0.5-0.3-0.3-1.8l0.2 0.4c-0.2-1 0.2-1.9-0.2-3 0.1 0 0.1 0.2 0.2 0.4-0.1-1-0.1-2.2-0.4-3 0.1-0.1 0.2 0 0.3 0.4 0.1-1-0.4-1.1-0.3-2 0-0.3 0.1-0.8 0.1-0.6-0.2-0.5-0.3-1.8-0.4-2.3 0.1-0.1 0.1-0.5 0.2-1.1-0.4-5.1-0.9-10.2-1.8-15.2 0.3-0.9 0.4 1.1 0.6 0.6-0.3 0.1-0.2-0.8-0.5-2.3v-0.1c-0.2-0.6 0-1-0.2-1.7h-0.1c-0.2-0.3-0.1-0.8-0.1-1.1 6 6.2 11.8 12.8 17.5 20zm-21.2 38.8c-1.8-0.2-4-1-6.1-1.5-0.3 0-0.9-0.1-0.7 0.1-1.2-0.5-2.6-0.9-4.1-1.2-0.6-0.2-1.1-0.3-1.7-0.5 1.4-1.1 2.8-2.2 4.2-3.4 0-0.4 1.8-1.5 1.7-1.8 0.2-0.1 0.1 0.1 0 0.2 2.2-2.1 2.4-2.2 4.7-3.8l5.4-4.8c-0.4 3.7-0.9 7.3-1.7 10.8-0.5 2.1-1 4-1.7 5.9zm6.2-22.3zm-4.4-33.8c0.3 0.2 0.3 1.9 0.6 2 0 0.2-0.1 0-0.2-0.1 0.5 2.5 0.5 2.7 0.4 5 0.8 9.9 1.8 19.4 1 29-3.8 3.6-7.8 7.2-11.6 10.8-1 0.4 0.9-1.1 0.3-0.9 0.2 0.2-0.7 0.7-2 2h-0.1c-0.6 0.5-1 0.7-1.6 1.3h0.1c-0.6 0.7-1.8 0.9-1.9 1.5l-0.7 0.2c-0.4 0.8-1 0.8-1.6 1.4-0.6-0.2-1.5-0.5-2-0.6-0.5-0.2-0.5-0.3-0.3-0.4-1.9-0.6-2.8-1-4.9-2-1-0.4-1.4-0.3-2.5-0.9-0.3-0.3-0.9-0.6-1.6-0.9s-1.4-0.6-1.9-1c0.2 0.4-1.4-0.1-2.5-0.8l0.5-0.2c-3.7-1.7-8.3-5.2-12.2-7.8l-0.1-0.4c-2.6-1.9-5-4.1-7.3-6.3 0-0.2-0.1-0.5-0.1-0.7-0.3-1.2-0.5-2.5-0.6-3.6-0.3 0.8-0.5-1.2-0.7-2 0-0.4 0.1-0.5 0.2-0.4-0.2-1.6-0.4-2.5-0.5-4.4-0.2-0.9-0.5-1.1-0.4-2.2 0.3-0.7-0.1-2.3-0.1-3.3-0.3 0.3-0.6-1.1-0.5-2.1l0.4 0.3c-0.2-1.7-0.1-3.7-0.1-5.9v-1.6c0-0.5 0-1.1 0.1-1.6v-3.1l0.3-0.3v-1.5c0.3-0.4 0.6-1.1 1.1-1.4-0.2 0.4 0 0.5 0.5 0.1-0.8 0.3 0.5-1.2 0.2-1.2 1.1-1 0.1 0.6 0.6 0.5 0.3-0.7 1.3-1 1.3-1.6-0.8 0.7-0.1-0.3 0-0.6 1-0.9 0 0.3 0.7-0.3 0.4-0.4 0.7-1.1 0-0.6 0.6-0.5 1-1.4 1.8-1.8 0.4-0.1-1.1 1.2-0.6 1 1.3-1.3 0.2-1.1 1.4-2.3-0.6 0.4-0.4-0.4 0.1-1 1.5-1.2-0.5 0.7 0.2 0.4l0.5-0.6c1.1-0.4-1.2 2-0.2 1.6l0.5-0.4c-0.1 0.2-0.1 0.5 0.2 0.4 0-0.4 1.4-1.4 1.4-1.5 0-0.3-0.4 0.5-0.5 0.3 0.6-0.6 0.6-1.2 1.7-2-0.4 0.6 0.4 0.1 0.3 0.4 0.6-0.4 0-0.4 0.8-0.9v0.2c2.6-2.3 6-5.1 8-7.4 0.6-0.1 1.5-0.8 3-1.7-0.7 0.4-0.2-0.2 0.2-0.5l0.8-0.3c0.9-0.5 1.8-1.5 2.5-2.2 0.2-0.1 0.3 0 0.3 0 0.8-0.4 0.7-0.7 0.9-0.9l0.6-0.2v-0.2c0.7-0.6 1.7-1.3 1.8-0.9 0.3-0.3 0.5-0.5 0.1-0.3l0.6-0.3c7.6 6.5 14.7 13.4 21.5 20.7 0.3 0.4 0.7 0.7 1 1.1 0.3 1.9 0.6 3.9 0.8 5.9zm-50.1 36.3c0.1 0.3-0.6-0.3-0.9-0.5 0-0.1 0-0.2-0.1-0.4 0.4 0.2 0.7 0.5 1 0.9zm-6.8-34.7v0.1-0.1 0zm3.5-10.2l0.3-3c0.3-1 0.7-2.7 0.9-3.7 0.1-1.4 0.3-1.9 0.2-3 0.1-0.5 0.4-0.8 0.5-1 0.2-0.9 0.5-1.7 0.8-2.5s0.5-1.5 0.5-2.3h0.2c0.2-1.4 0.5-3.5 1.3-4.9 0-0.5 0.5-2 0-1.4 0.2-0.6 0.5-0.3 0.5-1l0.1 0.7c0.7-1.7 1.2-3.3 1.8-4.8s1.2-3.1 1.9-4.7c0.3-0.3 0.6-0.9 0.9-1.5 3.5 1.8 6.6 3.6 9.8 5.8 0.4-0.1 1.9 1.3 2.2 1.1 0.1 0.2 0 0.1-0.2 0.1 2.6 1.6 2.7 1.8 4.7 3.8 0.5 0.4 1 0.9 1.6 1.3l-2.1 1.4c-0.8 0.7-0.9 1.1-2 1.8-0.9 0.2-2.2 1.6-3.3 2.3 0.4 0-0.7 1.2-1.8 1.9l0.1-0.6c-3.1 2.7-7.9 6.1-11.1 9.7l-0.4 0.1c-2.5 2.6-5.1 4.9-7.5 7.5-0.1-1.2 0-2.2 0.1-3.1zm-3.9 10.6c0 0.1 0.1 0.1 0.1 0.3-0.1 0.1-0.2 0.3-0.5 0.5-0.4 0.2 0-0.4 0.4-0.8zm0.1 0.4v0.3h-0.1c0-0.1 0.1-0.2 0.1-0.3zm-11.2 14.3v0c0-0.1 0.1-0.1 0 0 0.1 0 0.1 0 0 0zm0-0.2c-0.1 0-0.1 0 0 0-0.1 0-0.1 0 0 0-0.1 0-0.1 0 0 0zm0 0.9l0.2 0.1-0.2-0.1zm9.7 7.2c-1.3-1.1-1.7-1.6-2.8-2.2-0.5-0.5-0.6-0.9-0.7-1.1-1.4-1.6-2.6-3.4-4-4.4l0.1-0.2c-0.5-0.4-1-0.9-1.6-1.4 0.4-0.2 0.8-0.2 1.3-1.1-0.6 0.1 1-2.5-0.2-1.6 0.2-0.4 0.5-1 0.8-1.3-0.1 0.6 0.7-0.6 0.4 0.4l0.4-0.6-0.3 1.1c0.6-0.5 1.6-1.4 1.9-1.7 0.5-0.9-0.4 0.1 0.2-0.9-0.1 0.4 0.4-0.1 0.7-0.5-0.7 0.8-0.3-0.2 0-0.8 0.6-0.8 1.4-1.3 1.3-1.1l-0.4 1c0.3-0.7 0.3-0.2 0.7-0.9 0-0.3 0.1-0.8 0.1-1.1 0.4-0.6 0.8-0.8 1-1l-0.5 0.9c0.8-1.1 0.5 0.1 1.4-1.1l0.1-0.4c0.2-0.2 0.4-0.2 0.3 0 0-0.3 0.6-0.9 0.7-1.2h0.2c0.1-0.1 0.2-0.3 0.2-0.4 0 0.7-0.1 1.4-0.1 2.2v2.5c0.1 1.6 0.2 3.2 0.5 4.5-0.3 0.5-0.2 1.4-0.3 3 0-0.7 0.3 0 0.3 0.3l-0.2 0.7c-0.1 0.9 0.2 2 0.4 2.8 0 0.1-0.1 0.2-0.2 0.2-0.1 0.8 0.2 0.8 0.3 1.1l-0.1 0.5 0.2 0.1c0.2 0.8 0.3 1.8-0.1 1.7 0.1 0.3 0.2 0.6 0.2 0.2-0.1 0.8 0.1 2.9 0.5 4.3 0-0.7 0.1-0.6 0.3-0.7 0.4 0.1 0 0.3 0.3 0.8-0.1 0-0.1 0.7-0.4 0v0.9c-0.7-1.1-2-2.6-2.9-3.5zm11.7 24.7c-0.5-1.3-1-2.7-1.4-4.2s-0.8-3-1.4-4.4c-0.2-0.5-0.2-0.1-0.4-0.5-0.2-0.7 0.2 0 0.1-0.3-0.5-1.1-0.7-2.5-1-4 1.2 1 1 0.1 2.3 1.1-0.5-0.6 0.3-0.4 1.1 0 1.4 1.3-0.7-0.4-0.4 0.3l0.6 0.5c0.6 1-2.2-1-1.6 0l0.7 0.4c-0.2 0-0.6 0-0.4 0.3 0.3-0.1 1.6 1.2 1.7 1.3 0.3-0.1-0.6-0.4-0.3-0.4 0.7 0.5 1.3 0.5 2.3 1.4-0.7-0.3 0 0.4-0.3 0.4 0.5 0.5 0.3-0.1 1 0.6l-0.2 0.1c0.7 0.6 1.5 1.1 2.3 1.7s1.7 1.1 2.5 1.6c1.7 1.1 3.4 1.8 4.9 2.4 0.4 0.5 1.4 1.1 2.9 2-0.7-0.4 0.1-0.2 0.5-0.1l0.6 0.7c0.9 0.6 2.3 0.9 3.2 1.2 0.1 0.1 0.2 0.2 0.2 0.3 0.8 0.6 0.9 0.3 1.3 0.3 0.2 0.1 0.3 0.3 0.5 0.4l0.2-0.1c0.9 0.2 2 0.7 1.8 1 0.4 0.1 0.7 0.2 0.3-0.1 0.6 0.4 2.1 1 3.5 1.4-0.2 0.1-0.3 0.2-0.5 0.2-1 0.8-2.1 1.7-2.1 2-0.3 0.1-0.2-0.2-0.2-0.4-3.6 2.8-8 5.5-11.4 7.8-0.2 0 0-0.1 0.1-0.2-1.1 0.7-2.3 1.3-3.4 1.8l-0.6 0.3c-1-0.8-1.6-2.5-2.6-3.5h0.1c-2.4-3.9-4.5-8.7-6.5-13.3zm30.9 30.5c-0.1-0.1 0-0.1 0-0.2l0.1-0.1c-0.2-0.4-0.1 0.2-0.4 0-0.1 0.1-0.1 0.3-0.1 0.4l-0.4 0.4c-0.1 0-0.1 0.1-0.2 0.1v-0.3c-0.2 0-0.3 0.1-0.3 0.2-0.1 0-0.2-0.1-0.2-0.1-0.3 0.1 0.1 0.4-0.3 0.4v-0.2l-0.2 0.2v0.1l-0.1 0.1c-0.1 0.1-0.2 0.1-0.3 0.2-0.1-0.1-0.1-0.2 0-0.3-0.2-0.1-0.2 0.1-0.3 0.2h-0.5c0-0.1-0.1-0.1-0.2-0.1 0 0.1 0 0.1-0.1 0.1-0.3 0-0.6 0-0.8-0.1h0.2c-0.1-0.3-0.2-0.7-0.2-0.9-0.3-0.1-0.1 0.3-0.4 0.1 0.2 0 0.1-0.3 0-0.4 0.2 0.3-0.3 0.3-0.5 0.2-0.2-0.3-0.2-0.7-0.1-0.7l0.4 0.1c-0.3-0.1 0-0.2-0.2-0.3-0.2 0.1-0.5 0.1-0.7 0.1-0.2-0.1-0.2-0.4-0.2-0.5l0.4 0.2c-0.4-0.3 0.3-0.4-0.1-0.7h-0.3c0-0.1 0-0.2 0.1-0.2-0.2 0-0.3-0.2-0.5-0.3l0.1-0.1c-0.2-0.1-0.5-0.1-0.5-0.3h0.3c0.4 0 0.8 0.1 0.8-0.2 0 0 0.1 0.1 0.2 0.1 0.5-0.1 0.8-0.4 1.4-0.4l-0.2 0.3c-0.1 0.3 0.8 0.1 1.4 0.1 0.8 0.3 1.6 0.3 2.4 0.1 0.2-0.1 0.4-0.1 0.5-0.2 0 0.1 0.1 0.1 0.2 0.1 0 0 0.1-0.2 0-0.2h-0.1c0.2-0.1 0.4-0.2 0.6-0.4l0.1 0.1c0.1 0.4-0.4 0.1-0.1 0.5-0.1 0-0.3 0.1-0.4 0.2 0.2 0 0.1 0.7 0.4 0.3 0 0.4 0 0.8-0.1 1.2 0 0.6-0.4 0.7-0.6 1.1zm-0.1-0.2s0.1 0 0 0c0.1 0 0 0 0 0zm-2.6 1.4zm-6.3-7.2s0.1 0 0.1 0.1v0.3c-0.1-0.2-0.1-0.3-0.1-0.4zm0.5-0.4s0.1 0 0 0zm5.2-3.6v0 0zm-2.4 3.8v0.2-0.2zm5.8-1.2c0.2 0.5 0.2 1 0 1.5-0.5-0.4-0.6-0.1-1.1-0.2l0.1-0.2c-0.5-0.1-0.8 0.2-1 0.3-0.3-0.2-0.4-0.1-0.7-0.3 0.4-0.1 0.7-0.2 1-0.4-0.6-0.3-1.3 0.1-1.6-0.2h-0.4c0.1-0.4 0.3-0.8 0.6-1.1 0.4-0.4 0.4 0.2 0.5 0.1 0.4-0.3 0.9-0.4 1.4-0.3 0.5-0.1 0.9 0.3 1.2 0.8zm-3.6 1.9c-0.2-0.3-0.2-0.6-0.3-0.9 0.2-0.1 0.5-0.1 0.7 0.1-0.2 0.1-0.1 0.2-0.1 0.3 0.1 0 0.2-0.1 0.3-0.1-0.1 0.1-0.1 0.2-0.2 0.4 0.2-0.5 1 0 1.2 0l-0.1 0.1c0.4 0.3 0-0.2 0.3-0.1 0.1 0.1 0.1 0.2 0.1 0.3-0.6 0.1-1.1 0.3-1.7 0.3 0-0.1-0.1-0.3-0.2-0.4zm-1.7-1.1v0 0zm-0.4-1c-0.1 0.3-0.1 0.7-0.1 1.1-0.2 0.2-0.4 0.4-0.6 0.7 0.2-0.1 0.4-0.1 0.4 0.1 0.1-0.1 0.2-0.2 0.3-0.2l0.3 0.9c-0.5 0-1 0-1.5-0.1 0-0.3 0.5-0.5 0.2-0.7l0.3-0.2c-0.3-0.4 0.2-0.4 0.1-0.9v0.1c0.3-0.4 0.2-1.1 0.5-1.1 0.2-0.4 0.5-0.8 0.4-1.1 0.1 0 0.2 0.2 0.2 0.3 0.2-0.2 0.5-0.4 0.8-0.6-0.5 0.4-1 1-1.3 1.7zm-1.3 5.1h0.1c0 0.2 0.2 0.1 0.3 0.4 0 0.2-0.1 0.1-0.2 0.1-0.1-0.2-0.2-0.3-0.2-0.5zm9.2-1.4c-0.1 0.2-0.3 0.3-0.3 0.5 0.1 0.1 0.1 0.2 0.1 0.3-0.1-0.3-0.3-0.5-0.5-0.6h0.1c0.2-0.1 0.3-0.2 0.5-0.2-0.2 0.1-0.3 0.1-0.1 0 0-0.1 0.1-0.1 0.2 0 0-0.1 0-0.1 0.1-0.2 0 0-0.1 0-0.1 0.1h0.1s0 0.1-0.1 0.1zm-2.2-8.6l0.3 0.1c-0.1 0-0.2 0-0.3-0.1zm10.9-3.4c-0.3 1.6-1.7 3.1-2.5 4.7v-0.2c-0.4 0.6-0.7 1-1.1 1.3s-0.9 0.6-1.7 1.2c0.1 0.1-0.1 0.2-0.2 0.3-0.4-1-1.1-1.9-1.9-2.5-1.1-1-2.5-1.5-3.9-1.7-0.4-0.1-0.8-0.1-1.1-0.1-0.2-0.1-0.5-0.1-0.8-0.2-0.5 0-0.6 0.2-1.2 0.1-0.4-0.3-1.2 0-1.8 0 0.2 0.3-0.5 0.6-1 0.7v-0.4c-0.8 0.4-1.9 0.8-2.8 1.6-0.9 0.7-1.7 1.8-1.9 2.9l-0.3 0.1c-0.1 0.6-0.2 1.2-0.2 1.8 0 0.1-0.1 0.2-0.1 0.3-0.4-0.2-1.2-0.2-1.7-0.6 0.1-0.1 0.4 0 0.6 0.1-1.6-0.9-3.1-1.5-4.4-2.7-1.3-0.7-2.4-2.1-3.3-2.9 5.2-2.5 10.2-5.5 14.9-9-0.6 0.3-0.1-0.2 0.3-0.6h0.2l0.6-0.7c0.7-0.5 0.5-0.1 0 0.4 1.1-0.8 2.2-1.6 3.2-2.4 2 0.9 4.6 1.4 6.9 2.1 0.6 0.1 0.4 0 0.7 0 1.6 0.8 3.8 0.9 5.7 1.5-0.4-0.2 0.3-0.5 1.3-0.3-0.7 1.6-1.5 3.4-2.5 5.2zm37.7-32.4c-0.1-0.2-0.2-0.3-0.3-0.4 0 0.1 0.1 0.2 0.3 0.4zm-11.2-11.7c1.5 1.2 2.9 3.4 4.5 4.9h-0.2c1.3 1.4 1.3 1.9 2.5 4 0.2-0.1 0.5 0.7 0.6 0.3 0.7 0.6 0.5 1.5 1.2 2.4-0.1 0.1 0.1-0.1 0.2 0.1 1.9 2.4-0.4-0.4 1.3 3 2.8 4.6 5.3 9.5 6.6 14.4-0.1-0.3 0.1-0.5 0.2 0-0.3 0.6 0.5 1.6 0.5 2.5-0.1-0.1-0.2-0.5-0.3-0.7 0.1 1.1 0.2 2.1 0.2 3.1 0 0.9-0.1 1.9-0.5 2.7-0.2 0.8-0.6 1.5-1.2 2-0.7 0.6-1.4 1-2 1.3 0.2-0.3-0.8 0.1-1.2 0.1-0.6 0.4-1.5 0.5-2.5 0.4-1 0-2.1-0.2-3-0.1l0.1-0.1c-5.8-0.5-12-1.2-18-1.9-3.1-0.4-6.6-1.4-10-1.9 0-0.1 0.1-0.3 0.2-0.5 0.3-0.5-0.1 0.5 0.1 0.3 0.4-0.1 0.9-2 1-2.2 0-0.2 0-0.6-0.1-0.6 0.1-0.7 0.3-0.3 0.4-0.8 0-0.7-0.1-1.5-0.1-2.2 0.1 0.1 0.5-0.6 0.4 0.1 0.3-1.5 0.1-2.5 0.1-3.5 0.2-0.4 0.3-1.9 0.4-2.5 0.2-0.2-0.1 0.4 0.1 0.6l0.3-0.7c-0.1 1 0.4-0.1 0.4 0.5 0-0.8 0.5-2.8 0.7-4-0.5 0.8 0-1.7-0.4-1.7 0.1-1.5 0.4-0.7 0.5-1.2v-1.1c5.9-5.7 11.3-11.6 16.6-17.8 0 0.4 0.2 0.6 0.4 0.8zm20.1-46.2v-0.5c0.1 0.2 0.1 0.3 0 0.5zm0.1-4.6c-0.1 0.7-0.1 1.4 0 2.1 0-0.3 0-0.4 0.1-0.1 0 0-0.1 0.1-0.1 0.2v0.8-0.8c0 0.2 0 0.5-0.1 0.8v0.2c0 0.2 0 0.5-0.1 0.6l-0.2-0.2c0 0.5 0.1 1.9 0.2 1.9-0.4 2.2-1.1 6-1.3 6.9 0.1-0.6 0-0.8 0-0.4-0.1 0.7-0.2 1.5-0.3 1.5-0.1 0.7-0.3 0.6-0.7 1.5-0.1 0 0.2 0.2 0.2-0.1-0.8 1.6-1.2 3.8-2.2 5.7v-0.6c-0.5 1.5-1.1 2.9-1.5 4.4 0-0.2-0.1-0.2 0-0.6-0.4 0.8-0.8 1.7-1 2.3 0 0 0-0.1 0.1-0.1 0.6-0.6 0.1 0.8-0.4 1.4h-0.1c-0.6 1-0.5 1.1-1 2.1-0.5 0.5 0.2-0.5 0-0.4-0.4 0-1.5 2.1-1.7 2.2-0.1 0.3-0.2 0.6-0.1 0.6-0.4 0.8-0.4 0.2-0.7 0.7-0.2 0.8-0.5 1.6-0.8 2.4 0-0.1-0.7 0.5-0.4-0.2-1 1.5-1.3 2.6-1.8 3.7-0.4 0.4-1.3 1.9-1.7 2.4-0.3 0.1 0.3-0.4 0.3-0.6l-0.7 0.6c0.7-1-0.4-0.1-0.1-0.7-0.5 0.9-2 2.6-3 3.7 1-0.5-1.1 1.7-0.8 1.8-0.2 0.3-0.4 0.5-0.5 0.6-0.5-0.6-1.1-1.1-1.6-1.6 0.2 0.1 0.2 0 0.5 0.2-0.7-0.9-1.6-1.9-2.1-2.2 0.4 0.7 0.1 0 0.4 0.4 0.3 0.8-0.7-0.3-1.2-0.9-0.7-0.9-0.9-0.9-1.6-1.7-0.3-0.6 0.4 0.4 0.4 0.1 0.1-0.4-1.5-2.2-1.6-2.4-0.2-0.2-0.5-0.4-0.6-0.3-0.7-0.6-0.1-0.5-0.5-0.9l-2.1-1.5c0.2 0-0.3-0.8 0.3-0.3-1.2-1.4-2.3-1.9-3.2-2.6-0.3-0.5-1.6-1.7-2-2.2-0.1-0.3 0.3 0.4 0.5 0.4l-0.4-0.9c0.8 0.9 0.2-0.3 0.7 0.1-0.7-0.7-2.2-2.5-3.2-3.7 0.4 1-1.5-1.3-1.7-1-1.2-1.2-0.4-0.8-0.8-1.4l-0.3-0.3c-0.2-1-0.7-1.8-0.5-2.2-0.2-1-0.5-2.2-0.8-2.3 0.1-0.2 0.3-0.1 0.4 0-0.9-3.8-1.7-8.1-3-11.3 0-0.2 0.1 0 0.2 0.1-0.4-1-0.7-2.1-0.9-3.1s-0.5-1.9-1.1-2.6l-0.4-0.5c-0.1-0.5 0.1-0.5 0.1-0.9-0.3-0.4-0.7-1.9-1-2 0-0.3 0.2 0 0.2 0-0.3-1-1-1.9-1.3-2.8l0.2 0.2c-0.3-1.1-0.7-2.3-1.1-3.5 0 0 0.1 0 0.1-0.1h-0.1c0-0.1 0-0.1-0.1-0.2 0.1-0.2 0.4-0.6 0.9-0.9 0.8-0.8 0.6 0.1 1.6-0.3 0.4-0.4 1.2-0.9 1.5-1.1v0.1c0.5-0.4 1.3-1 2-1.3l-0.1 0.1c0.5-0.3 1.2-0.5 1.8-0.8 0.1-0.4 1.5-1 1.8-1.4 0.1 0 0 0.1 0.2 0l-0.1-0.2 1.4-0.3c-0.2 0.2-0.2 0.3-0.5 0.6 1.3-0.5 0.3-0.4 0.9-0.9 0.7-0.6 0.8-0.4 1.2-0.5-0.3 0.3-0.6 0.3-0.8 0.4-0.4 0.4 0.5-0.2 0.6-0.1 0.2-0.1 0.1-0.4 0.8-0.7 0.5-0.3 1.7-1 1.7-0.7 0.4-0.4 0.9-0.6 1.2-0.9-0.4 0.2-1.3 0.6-1.4 0.5 0.4-0.2 1.1-0.7 1.3-0.7l-0.3 0.2c0.3-0.2 1.5-0.8 0.8-0.6l1-0.1c0.2-0.3 1-0.7 1.7-1.1 0.1 0.2-0.3 0.7 1 0.2 0.3-0.2 0.7-0.5 1-0.7 0.6-0.3 0.7-0.3 0.7-0.1 1-0.3 1.5-0.7 1.9-1s0.8-0.6 1.6-0.7c-0.6 0.5 0 0.3 0.7 0.2 0-0.1 0.1-0.2 0.4-0.2-0.2-0.1-0.4 0.3-1 0.3-0.2-0.1 0.6-0.3 1-0.4 0.8 0.1 2-0.1 3.3-0.2s2.8-0.2 3.9 0.1c-0.1-0.2 0.2-0.2 0.5-0.1s0.7 0.2 1 0.2c-0.4 0 0.8 0 1.4 0.3-0.1 0.2-0.2 0.5-0.2 0.6 0 0.4-0.1 0.8-0.3 1.2v-0.1c-0.1 0.3-0.4 0.6-0.5 0.9 0.2 0.2-0.1 0.9 0.1 1.2h-0.1l0.2 0.1-0.2 0.6c-0.1-0.2-0.2-0.2-0.2-0.4-0.3 0.7 0.2 0.3 0.2 0.6 0.1 0.5-0.1 0.4-0.2 0.7-0.1-0.2 0.1-0.4 0.1-0.5-0.1-0.3-0.1 0.3-0.2 0.3 0 0.1 0.2 0.2 0.2 0.5-0.1 0.3 0 1.1-0.2 1 0.1 0.3 0.2 0.6 0.3 0.8v-0.5c0-0.1-0.1-0.1-0.1-0.3l0.2 0.2c0-0.1 0.1-0.2 0.1-0.3 0 0.1 0.1 0.3 0.1 0.4-0.1 0-0.1 0-0.2-0.1 0 0.2-0.1 0.5 0.1 0.7 0 0.2-0.3-0.1-0.2 0.2 0.2 0.1 0.3 0 0.3-0.3 0.1 0.2 0.1 0.4 0.2 0.1-0.1 0.2-0.1 0.4-0.2 0.5 0.2 0.1 0.4 0.6 0.6 1-0.1-0.2-0.3-0.4-0.4-0.6l0.3 0.6c-0.2 0-0.5 0-0.2 0.7 0.2 0.2 0.4 0.3 0.6 0.4 0.3 0.3 0.3 0.4 0.1 0.4 0.3 0.4 0.6 0.5 0.8 0.6l0.3 0.6c0.2-0.1 0.1-0.4 0.4-0.4 0.1 0.1 0.3 0.2 0.3 0.4-0.2 0.2-0.6 0.4-0.2 1-0.5 0-0.5-1.1-0.7-0.7-0.5-0.2-1-1.4-0.9-1.7-0.6-0.4 0.1 0.5-0.2 0.5 0.2 0.5 0.5 0.7 1 1.5 0.2-0.1 0-0.4 0.4 0 0.7 0.6 0.3 1 0.4 1.2l-0.3-0.3c0.2 0.6 0.5 0.6 0.9 1.1-0.3 0.4-0.7-0.8-1-0.8v0.6c0.6 0.9 0.4 0 1.1 0.9h-0.2c0.2 0.2 0.4 0.3 0.6 0.4 0.1-0.1 0.2-0.4-0.3-0.8 0.6-0.1 0.4 0.4 1.2 0.8 0.4 0-0.4-0.2-0.2-0.4 0.1-0.2 0.5 0.1 1 0.3 0.7 0.3 0.2 0.4 0.5 0.7-0.2 0-0.7-0.2-0.6-0.3-1-0.2 0.2 0.7-0.6 0.5 0.4 0.3 0.6 0.3 0.8 0.3h0.4c-0.2-0.1 0.2-0.2 0-0.3 0.7-0.2 0.9 0 1 0.2 0.2 0.2 0.4 0.5 1.1 0.4-0.2-0.2 0.3-0.4 0.5-0.6 0.3-0.2 0.4-0.5 0-0.6 0.2-0.1 0.5-0.3 0.7-0.4-0.1 0.4 0.5 0 0.2 0.5l0.4-0.2c-0.1 0.2-0.3 0.4-0.4 0.6 0.5 0 1.3-0.2 1.6-0.2 0.4-0.5-0.3-0.1 0.2-0.6-0.1 0.3 0.3 0.1 0.6-0.1-0.5 0.3-0.3-0.3 0-0.6 0.4-0.4 0.9-0.5 0.9-0.4-0.1 0.2-0.1 0.4-0.2 0.6 0.2-0.5 0.2 0 0.5-0.4 0-0.2 0-0.6-0.1-0.8 0-0.1 0.1-0.1 0.1-0.2 0.1 0.2 0.2 0.4 0.3 0.3-0.1 0-0.1 0.2-0.1 0.2 0.3 0.4 0.6 0.8 0.7 1.4l-0.3-0.1c-0.4-0.1 0.2 1.7 0 2 0.2-0.6 0.1 0.7 0.3 0.7l0.2 0.7c0.1 1.2 0.2 0.1 0.3 1.6-0.4 1-0.8 0.4-0.7 0.1zm2.8-15.7v-0.1l0.2 0.2h0.1c-0.1 0.1-0.2 0-0.3-0.1z" style="fill: inherit;"></path>
			<path d="m136.8 22c0.2 0.4 0.3 0.4 0.2 0.1 0-0.1-0.1-0.2-0.2-0.1z" style="fill: inherit;"></path>
			<path d="m137.6 22.6c0-0.1 0-0.3-0.1-0.5-0.2 0 0 0.3 0.1 0.5z" style="fill: inherit;"></path>
			<path d="m137.6 22.7v0 0z" style="fill: inherit;"></path>
			<path d="m144.2 26.3c-0.1 0.1 0.1 0.1 0.3 0s0.4-0.2 0.6-0.2c-0.3-0.1-0.7 0.2-0.9 0.2z" style="fill: inherit;"></path>
			<path d="m147.7 24.2l-0.2 0.2 0.2 0.1c0.1-0.2 0.2-0.4 0-0.3z" style="fill: inherit;"></path>
			<path d="m145.6 21.4c-0.1 0-0.2 0-0.3 0.1v0.2c0.1-0.2 0.2-0.2 0.3-0.3z" style="fill: inherit;"></path>
			<polygon points="140.3 17.9 140.4 17.6 140.2 17.8" style="fill: inherit;"></polygon>
			<path d="m3.4 29.6c0.1 0 0 0 0 0z" style="fill: inherit;"></path>
			<path d="m5.1 20.3v0 0z" style="fill: inherit;"></path>
			<path d="m7.2 16.2c0.1 0 0 0 0 0z" style="fill: inherit;"></path>
			<path d="m92.1 138.3c0 0.1-0.2 0.3 0 0.4-0.1 0.1-0.2 0-0.2 0.1 0.2 0.1 0.5-0.1 0.5-0.4h0.1c-0.2-0.1-0.3-0.1-0.4-0.1z" style="fill: inherit;"></path>
			<path d="m92.4 138.2z" style="fill: inherit;"></path>
			<path d="m85.5 134.9c0-0.1 0.1-0.1 0.1-0.1 0-0.1-0.1 0-0.1 0.1z" style="fill: inherit;"></path>
			<path d="m92 138.1l0.1 0.1-0.1-0.1z" style="fill: inherit;"></path>
			<path d="m83.5 142.9c-0.1 0-0.2-0.1-0.2-0.1 0 0.1 0.1 0.1 0.2 0.1z" style="fill: inherit;"></path>
			<path d="m92.4 139.8c0-0.2-0.1-0.4-0.2-0.6 0 0.1 0 0.5 0.2 0.6z" style="fill: inherit;"></path>
			<path d="m91.2 140.8c0-0.1 0-0.1-0.1-0.2-0.1 0.1-0.1 0.2 0.1 0.2z" style="fill: inherit;"></path>
			<path d="m88.3 141.1c0 0.2 0.2 0.2 0.2 0.2 0.2-0.2-0.2 0-0.2-0.2z" style="fill: inherit;"></path>
			<path d="m86.9 140.2c0.1 0 0.1 0.1 0.1 0.1l0.1-0.2s-0.2 0-0.2 0.1z" style="fill: inherit;"></path>
		</g>
	</g>
</g>
</svg>